<?xml version="1.0" standalone="no"?>
<!DOCTYPE svg PUBLIC "-//W3C//DTD SVG 1.1//EN" "http://www.w3.org/Graphics/SVG/1.1/DTD/svg11.dtd">
<svg version="1.1" xmlns="http://www.w3.org/2000/svg" viewBox="0 0 190 191" width="190" height="191"><!-- svg-source:excalidraw --><metadata></metadata><defs><style class="style-fonts">
      </style></defs><g stroke-linecap="round" transform="translate(28 68) rotate(0 67 56.5)"><path d="M28.25 0 C47.17 -1.91, 61.77 0.97, 105.75 0 M28.25 0 C45.08 -0.69, 63.27 -0.86, 105.75 0 M105.75 0 C125.59 0.74, 134.56 8.82, 134 28.25 M105.75 0 C124.71 -1.37, 134.64 11.63, 134 28.25 M134 28.25 C131.8 42.83, 133.15 55.98, 134 84.75 M134 28.25 C133.72 40.51, 134.87 52.12, 134 84.75 M134 84.75 C134.25 103.66, 123.9 112.26, 105.75 113 M134 84.75 C134.63 101.79, 126.17 114.21, 105.75 113 M105.75 113 C88.23 112.89, 74.96 110.87, 28.25 113 M105.75 113 C82.86 113.41, 58.34 114.03, 28.25 113 M28.25 113 C9.29 113.92, -1.42 103.26, 0 84.75 M28.25 113 C9.08 112.91, -2.24 105.62, 0 84.75 M0 84.75 C1.69 68.03, 1.6 54.29, 0 28.25 M0 84.75 C-0.1 65.93, 0.64 48.75, 0 28.25 M0 28.25 C-1.28 8.69, 8.38 1.67, 28.25 0 M0 28.25 C-1.23 10.97, 11.24 1.47, 28.25 0" stroke="#1e1e1e" stroke-width="4" fill="none"></path></g><g stroke-linecap="round" transform="translate(55 97) rotate(0 10 10)"><path d="M10.18 -0.17 C12.23 -0.33, 15.14 0.67, 16.8 2.02 C18.46 3.37, 19.78 5.7, 20.13 7.94 C20.48 10.17, 20.13 13.45, 18.91 15.42 C17.68 17.38, 14.87 19.14, 12.8 19.72 C10.72 20.3, 8.4 19.65, 6.46 18.89 C4.52 18.12, 2.3 16.99, 1.17 15.13 C0.05 13.27, -0.76 9.84, -0.28 7.73 C0.19 5.62, 2.18 3.74, 4.03 2.47 C5.88 1.19, 9.61 0.47, 10.8 0.09 C12 -0.29, 11.27 0, 11.19 0.19 M10.75 0.25 C12.83 0.3, 15.34 1.68, 16.94 3.21 C18.53 4.75, 20.05 7.33, 20.33 9.46 C20.61 11.58, 19.88 14.32, 18.61 15.99 C17.35 17.65, 14.89 18.85, 12.73 19.45 C10.58 20.04, 7.62 20.5, 5.68 19.53 C3.74 18.55, 1.88 15.6, 1.09 13.59 C0.29 11.59, 0.39 9.38, 0.91 7.49 C1.44 5.59, 2.59 3.4, 4.25 2.23 C5.91 1.07, 9.7 0.73, 10.85 0.53 C12.01 0.32, 11.27 0.93, 11.2 0.99" stroke="none" stroke-width="0" fill="#ffffff"></path><path d="M8.83 0.38 C10.96 0.05, 14.32 0.99, 16.11 2.11 C17.89 3.23, 19.03 5.01, 19.55 7.08 C20.08 9.15, 20.18 12.54, 19.25 14.53 C18.32 16.53, 15.95 18.14, 13.98 19.07 C12.01 19.99, 9.43 20.55, 7.42 20.07 C5.41 19.59, 3.1 17.97, 1.92 16.19 C0.74 14.41, 0.22 11.68, 0.34 9.41 C0.45 7.14, 1.18 4.16, 2.63 2.58 C4.08 1, 7.95 0.25, 9.05 -0.09 C10.16 -0.42, 9.14 0.34, 9.26 0.54 M8.98 0.53 C11.12 0.02, 14.37 0.31, 16.05 1.49 C17.72 2.67, 18.53 5.65, 19 7.62 C19.48 9.59, 19.7 11.35, 18.92 13.29 C18.14 15.23, 16.18 18.19, 14.33 19.25 C12.48 20.3, 9.89 20.12, 7.81 19.62 C5.73 19.12, 3.23 18.05, 1.82 16.25 C0.41 14.46, -0.77 11.07, -0.65 8.84 C-0.53 6.62, 1.03 4.41, 2.54 2.9 C4.04 1.39, 7.38 0.32, 8.4 -0.23 C9.41 -0.78, 8.67 -0.52, 8.65 -0.37" stroke="#1e1e1e" stroke-width="2" fill="none"></path></g><g stroke-linecap="round" transform="translate(120 95) rotate(0 10 10)"><path d="M11.32 0.24 C13.3 0.3, 15.64 1.61, 17.14 3.17 C18.65 4.73, 20.24 7.39, 20.33 9.59 C20.41 11.79, 18.96 14.69, 17.64 16.37 C16.31 18.05, 14.35 19.26, 12.38 19.67 C10.41 20.08, 7.67 19.77, 5.8 18.83 C3.92 17.9, 1.93 16.09, 1.12 14.08 C0.31 12.08, 0.37 8.93, 0.93 6.8 C1.48 4.67, 2.65 2.46, 4.45 1.32 C6.24 0.18, 10.38 0.07, 11.7 -0.05 C13.02 -0.17, 12.45 0.43, 12.39 0.6 M6.81 0.86 C8.78 0.34, 11.88 0.7, 13.92 1.62 C15.96 2.54, 18.25 4.44, 19.08 6.38 C19.9 8.32, 19.35 11.22, 18.89 13.27 C18.43 15.31, 18.03 17.55, 16.33 18.66 C14.64 19.78, 11.03 20.19, 8.73 19.95 C6.43 19.71, 4.03 18.81, 2.52 17.22 C1.01 15.63, -0.16 12.67, -0.33 10.39 C-0.49 8.11, 0.13 5.22, 1.5 3.53 C2.87 1.84, 6.96 0.71, 7.9 0.25 C8.84 -0.22, 7.04 0.53, 7.13 0.75" stroke="none" stroke-width="0" fill="#ffffff"></path><path d="M7.63 0.08 C9.59 -0.39, 13.11 0.3, 15.05 1.33 C16.99 2.37, 18.5 4.4, 19.26 6.31 C20.03 8.22, 20.4 10.78, 19.65 12.81 C18.9 14.83, 16.67 17.31, 14.78 18.44 C12.89 19.57, 10.37 19.91, 8.29 19.58 C6.2 19.24, 3.71 18.06, 2.26 16.41 C0.81 14.77, -0.37 11.78, -0.42 9.69 C-0.48 7.6, 0.44 5.47, 1.95 3.88 C3.45 2.29, 7.41 0.76, 8.61 0.14 C9.82 -0.47, 9.16 0.07, 9.17 0.2 M10.58 0.57 C12.79 0.52, 16.16 1.01, 17.8 2.52 C19.44 4.02, 20.49 7.34, 20.4 9.58 C20.31 11.82, 18.56 14.36, 17.25 15.94 C15.95 17.52, 14.64 18.5, 12.57 19.07 C10.49 19.64, 6.72 20.22, 4.81 19.39 C2.9 18.56, 1.81 16.12, 1.1 14.08 C0.39 12.03, 0 9.26, 0.57 7.11 C1.14 4.96, 2.66 2.3, 4.51 1.18 C6.37 0.05, 10.65 0.47, 11.7 0.38 C12.75 0.28, 10.94 0.46, 10.81 0.61" stroke="#1e1e1e" stroke-width="2" fill="none"></path></g><g stroke-linecap="round" transform="translate(50 137) rotate(0 46.5 12)"><path d="M6 0 C31.65 0.66, 59.23 -1.42, 87 0 M6 0 C25.23 0.05, 46.15 -0.29, 87 0 M87 0 C92.44 0.45, 94.51 3.93, 93 6 M87 0 C92.67 -1.98, 93.98 2.81, 93 6 M93 6 C92.32 9.75, 93.38 14.11, 93 18 M93 6 C92.64 10.83, 93.27 15.16, 93 18 M93 18 C93.34 23.2, 91.83 24.27, 87 24 M93 18 C94.13 21.36, 91.17 21.98, 87 24 M87 24 C64.47 22.81, 36.15 24.88, 6 24 M87 24 C55.32 24.57, 23.71 23.44, 6 24 M6 24 C0.12 22.49, -1.4 21.94, 0 18 M6 24 C3.99 25.08, 1.59 21.4, 0 18 M0 18 C-0.44 14.62, -0.33 11.38, 0 6 M0 18 C0.48 13.56, 0.27 10.76, 0 6 M0 6 C0.2 0.15, 1.73 1.11, 6 0 M0 6 C1.13 1.19, 3.36 1.58, 6 0" stroke="#1e1e1e" stroke-width="2" fill="none"></path></g><g stroke-linecap="round"><g transform="translate(72 137) rotate(0 0 11.5)"><path d="M-0.42 -0.38 C-0.33 3.61, -0.13 19.52, -0.02 23.48 M0.37 0.61 C0.42 4.51, -0.4 19.1, -0.46 22.75" stroke="#1e1e1e" stroke-width="2" fill="none"></path></g></g><mask></mask><g stroke-linecap="round"><g transform="translate(97 137) rotate(0 0 11.5)"><path d="M-0.51 -0.07 C-0.54 3.79, 0.25 19.37, 0.31 23.27 M0.23 -0.59 C0.1 3.11, 0.18 18.61, 0.03 22.44" stroke="#1e1e1e" stroke-width="2" fill="none"></path></g></g><mask></mask><g stroke-linecap="round"><g transform="translate(120 136) rotate(0 0 11.5)"><path d="M0.5 -0.2 C0.58 3.74, 0.06 19.53, -0.05 23.39 M0.09 -0.78 C0.14 3.03, -0.39 18.57, -0.5 22.62" stroke="#1e1e1e" stroke-width="2" fill="none"></path></g></g><mask></mask><g stroke-linecap="round" transform="translate(10 102) rotate(0 9 21)"><path d="M4.5 0 C7.41 -0.06, 9.58 -0.66, 13.5 0 M4.5 0 C7.61 -0.36, 10.04 -0.34, 13.5 0 M13.5 0 C17.71 -0.05, 17.23 0.83, 18 4.5 M13.5 0 C18.29 0.05, 15.86 3.33, 18 4.5 M18 4.5 C17.87 16.43, 17.12 27.9, 18 37.5 M18 4.5 C18.54 16.73, 18.38 30.57, 18 37.5 M18 37.5 C19.35 39.81, 18.23 40.79, 13.5 42 M18 37.5 C19.55 38.91, 14.34 40.07, 13.5 42 M13.5 42 C10.71 42.01, 6.81 42.61, 4.5 42 M13.5 42 C11.82 41.66, 10.03 42.13, 4.5 42 M4.5 42 C0.01 40.38, 0.87 40.85, 0 37.5 M4.5 42 C0.71 43.29, -1.67 38.71, 0 37.5 M0 37.5 C0.3 28.1, -0.56 13.8, 0 4.5 M0 37.5 C0.17 25.37, 0 11.35, 0 4.5 M0 4.5 C1.78 2.7, 0.97 0.13, 4.5 0 M0 4.5 C1.07 3.56, -0.24 -1.89, 4.5 0" stroke="#1e1e1e" stroke-width="2" fill="none"></path></g><g stroke-linecap="round" transform="translate(162 102) rotate(0 9 21)"><path d="M4.5 0 C6.66 -0.5, 10.4 0.2, 13.5 0 M4.5 0 C7.92 -0.05, 11.65 0.18, 13.5 0 M13.5 0 C15.97 0.13, 18.93 3.29, 18 4.5 M13.5 0 C14.76 -1.89, 16.28 2.76, 18 4.5 M18 4.5 C19.31 14.34, 16.18 25.2, 18 37.5 M18 4.5 C18.15 15.25, 18.54 27.77, 18 37.5 M18 37.5 C19.14 39.52, 15.28 40.32, 13.5 42 M18 37.5 C18.48 38.94, 17.97 42.47, 13.5 42 M13.5 42 C11.68 42.01, 9.87 41.6, 4.5 42 M13.5 42 C10.48 42.21, 7.63 42.13, 4.5 42 M4.5 42 C3.24 40.25, -1.99 41.97, 0 37.5 M4.5 42 C3.47 41.55, -0.29 41.03, 0 37.5 M0 37.5 C0.6 30.7, -0.41 22.28, 0 4.5 M0 37.5 C-0.34 31.06, 0.85 24.68, 0 4.5 M0 4.5 C-1.2 2.5, 1.24 -1.42, 4.5 0 M0 4.5 C0.03 0.18, 0.39 1.33, 4.5 0" stroke="#1e1e1e" stroke-width="2" fill="none"></path></g><g stroke-linecap="round" transform="translate(76 56) rotate(0 21.5 5.5)"><path d="M2.75 0 C14.68 -0.46, 26.08 0.95, 40.25 0 M2.75 0 C11.15 -0.24, 18.62 -0.02, 40.25 0 M40.25 0 C41.69 -0.15, 43.37 1.19, 43 2.75 M40.25 0 C43.12 -0.26, 44.14 -0.17, 43 2.75 M43 2.75 C43.1 4.11, 43.22 4.99, 43 8.25 M43 2.75 C43 4.6, 42.93 6.68, 43 8.25 M43 8.25 C43.4 9.72, 42.75 10.55, 40.25 11 M43 8.25 C44.06 9.17, 42.21 11.25, 40.25 11 M40.25 11 C29.31 10.45, 17.77 10.35, 2.75 11 M40.25 11 C29.38 10.62, 18.21 10.91, 2.75 11 M2.75 11 C0.44 10.31, -0.49 10.89, 0 8.25 M2.75 11 C-0.15 11.04, -0.4 10.8, 0 8.25 M0 8.25 C0.18 5.96, 0 3.92, 0 2.75 M0 8.25 C-0.13 7, 0 5.66, 0 2.75 M0 2.75 C0.81 0.93, 0.66 -0.92, 2.75 0 M0 2.75 C-0.42 1.21, 1.88 -0.86, 2.75 0" stroke="#1e1e1e" stroke-width="2" fill="none"></path></g><g stroke-linecap="round" transform="translate(84 10) rotate(0 12.5 12.5)"><path d="M14.54 0.07 C17.08 0.51, 20.74 3.01, 22.42 5.14 C24.1 7.28, 24.72 10.27, 24.62 12.9 C24.52 15.53, 23.6 18.88, 21.82 20.94 C20.03 23.01, 16.5 24.96, 13.91 25.3 C11.31 25.64, 8.5 24.5, 6.27 23 C4.03 21.49, 1.46 18.77, 0.52 16.27 C-0.42 13.77, -0.32 10.45, 0.62 8.01 C1.56 5.58, 3.64 2.96, 6.13 1.66 C8.62 0.36, 14.01 0.38, 15.58 0.21 C17.15 0.05, 15.59 0.48, 15.55 0.69 M13.71 0.31 C16.35 0.29, 19.64 1.32, 21.55 3.17 C23.45 5.01, 24.82 8.63, 25.15 11.38 C25.48 14.13, 25.13 17.6, 23.53 19.66 C21.92 21.73, 18.2 23.1, 15.54 23.77 C12.87 24.44, 9.94 24.66, 7.53 23.68 C5.11 22.7, 2.22 20.31, 1.03 17.89 C-0.15 15.46, -0.28 11.73, 0.42 9.15 C1.12 6.56, 3.07 3.95, 5.26 2.36 C7.45 0.76, 12.25 -0.11, 13.59 -0.42 C14.93 -0.73, 13.31 0.17, 13.29 0.49" stroke="#1e1e1e" stroke-width="4" fill="none"></path></g><g stroke-linecap="round"><g transform="translate(91 55) rotate(0 0 -10)"><path d="M0.25 -0.09 C0.3 -3.42, 0.18 -16.76, 0.12 -20.01 M-0.29 -0.61 C-0.28 -3.85, -0.21 -16.01, -0.25 -19.32" stroke="#1e1e1e" stroke-width="2" fill="none"></path></g></g><mask></mask><g stroke-linecap="round"><g transform="translate(103 54) rotate(0 -0.5 -10)"><path d="M-0.09 -0.44 C-0.24 -3.82, -0.86 -16.88, -1.08 -20.18 M-0.8 0.52 C-1.01 -2.78, -1.63 -16.2, -1.56 -19.58" stroke="#1e1e1e" stroke-width="2" fill="none"></path></g></g><mask></mask></svg>