<svg width="132" height="172" viewBox="0 0 132 172" fill="none" xmlns="http://www.w3.org/2000/svg">
<mask id="path-1-inside-1_120_356" fill="white">
<path fill-rule="evenodd" clip-rule="evenodd" d="M29.0299 0H4.16162C1.95248 0 0.161621 1.79086 0.161621 4V29H5.39735C6.08897 27.8044 7.38166 27 8.86222 27C11.0714 27 12.8622 28.7909 12.8622 31C12.8622 33.2091 11.0714 35 8.86222 35C7.38165 35 6.08897 34.1956 5.39735 33H0.161621V49H5.39735C6.08897 47.8044 7.38165 47 8.86222 47C11.0714 47 12.8622 48.7909 12.8622 51C12.8622 53.2091 11.0714 55 8.86222 55C7.38165 55 6.08897 54.1956 5.39735 53H0.161621V69H5.39735C6.08897 67.8044 7.38166 67 8.86222 67C11.0714 67 12.8622 68.7909 12.8622 71C12.8622 73.2091 11.0714 75 8.86222 75C7.38166 75 6.08897 74.1956 5.39735 73H0.161621V89H5.39735C6.08897 87.8044 7.38166 87 8.86222 87C11.0714 87 12.8622 88.7909 12.8622 91C12.8622 93.2091 11.0714 95 8.86222 95C7.38166 95 6.08897 94.1956 5.39735 93H0.161621V109H5.39735C6.08897 107.804 7.38166 107 8.86222 107C11.0714 107 12.8622 108.791 12.8622 111C12.8622 113.209 11.0714 115 8.86222 115C7.38166 115 6.08897 114.196 5.39735 113H0.161621V129H5.39735C6.08897 127.804 7.38166 127 8.86222 127C11.0714 127 12.8622 128.791 12.8622 131C12.8622 133.209 11.0714 135 8.86222 135C7.38166 135 6.08897 134.196 5.39735 133H0.161621V168C0.161621 170.209 1.95248 172 4.16162 172H29.0299V0ZM31.0299 172H127.994C130.203 172 131.994 170.209 131.994 168V4C131.994 1.79086 130.203 0 127.994 0H31.0299V172Z"/>
</mask>
<path fill-rule="evenodd" clip-rule="evenodd" d="M29.0299 0H4.16162C1.95248 0 0.161621 1.79086 0.161621 4V29H5.39735C6.08897 27.8044 7.38166 27 8.86222 27C11.0714 27 12.8622 28.7909 12.8622 31C12.8622 33.2091 11.0714 35 8.86222 35C7.38165 35 6.08897 34.1956 5.39735 33H0.161621V49H5.39735C6.08897 47.8044 7.38165 47 8.86222 47C11.0714 47 12.8622 48.7909 12.8622 51C12.8622 53.2091 11.0714 55 8.86222 55C7.38165 55 6.08897 54.1956 5.39735 53H0.161621V69H5.39735C6.08897 67.8044 7.38166 67 8.86222 67C11.0714 67 12.8622 68.7909 12.8622 71C12.8622 73.2091 11.0714 75 8.86222 75C7.38166 75 6.08897 74.1956 5.39735 73H0.161621V89H5.39735C6.08897 87.8044 7.38166 87 8.86222 87C11.0714 87 12.8622 88.7909 12.8622 91C12.8622 93.2091 11.0714 95 8.86222 95C7.38166 95 6.08897 94.1956 5.39735 93H0.161621V109H5.39735C6.08897 107.804 7.38166 107 8.86222 107C11.0714 107 12.8622 108.791 12.8622 111C12.8622 113.209 11.0714 115 8.86222 115C7.38166 115 6.08897 114.196 5.39735 113H0.161621V129H5.39735C6.08897 127.804 7.38166 127 8.86222 127C11.0714 127 12.8622 128.791 12.8622 131C12.8622 133.209 11.0714 135 8.86222 135C7.38166 135 6.08897 134.196 5.39735 133H0.161621V168C0.161621 170.209 1.95248 172 4.16162 172H29.0299V0ZM31.0299 172H127.994C130.203 172 131.994 170.209 131.994 168V4C131.994 1.79086 130.203 0 127.994 0H31.0299V172Z" fill="#22C55E"/>
<path d="M29.0299 0H31.0299V-2H29.0299V0ZM0.161621 29H-1.83838V31H0.161621V29ZM5.39735 29V31H6.55093L7.12856 30.0015L5.39735 29ZM5.39735 33L7.12856 31.9985L6.55093 31H5.39735V33ZM0.161621 33V31H-1.83838V33H0.161621ZM0.161621 49H-1.83838V51H0.161621V49ZM5.39735 49V51H6.55093L7.12856 50.0015L5.39735 49ZM5.39735 53L7.12856 51.9985L6.55093 51H5.39735V53ZM0.161621 53V51H-1.83838V53H0.161621ZM0.161621 69H-1.83838V71H0.161621V69ZM5.39735 69V71H6.55093L7.12856 70.0015L5.39735 69ZM5.39735 73L7.12856 71.9985L6.55093 71H5.39735V73ZM0.161621 73V71H-1.83838V73H0.161621ZM0.161621 89H-1.83838V91H0.161621V89ZM5.39735 89V91H6.55093L7.12856 90.0015L5.39735 89ZM5.39735 93L7.12856 91.9985L6.55093 91H5.39735V93ZM0.161621 93V91H-1.83838V93H0.161621ZM0.161621 109H-1.83838V111H0.161621V109ZM5.39735 109V111H6.55093L7.12856 110.001L5.39735 109ZM5.39735 113L7.12856 111.999L6.55093 111H5.39735V113ZM0.161621 113V111H-1.83838V113H0.161621ZM0.161621 129H-1.83838V131H0.161621V129ZM5.39735 129V131H6.55093L7.12856 130.001L5.39735 129ZM5.39735 133L7.12856 131.999L6.55093 131H5.39735V133ZM0.161621 133V131H-1.83838V133H0.161621ZM29.0299 172V174H31.0299V172H29.0299ZM31.0299 172H29.0299V174H31.0299V172ZM31.0299 0V-2H29.0299V0H31.0299ZM4.16162 2H29.0299V-2H4.16162V2ZM2.16162 4C2.16162 2.89543 3.05705 2 4.16162 2V-2C0.847911 -2 -1.83838 0.686295 -1.83838 4H2.16162ZM2.16162 29V4H-1.83838V29H2.16162ZM5.39735 27H0.161621V31H5.39735V27ZM8.86222 25C6.63886 25 4.70055 26.2104 3.66614 27.9985L7.12856 30.0015C7.47739 29.3984 8.12446 29 8.86222 29V25ZM14.8622 31C14.8622 27.6863 12.1759 25 8.86222 25V29C9.96679 29 10.8622 29.8954 10.8622 31H14.8622ZM8.86222 37C12.1759 37 14.8622 34.3137 14.8622 31H10.8622C10.8622 32.1046 9.96679 33 8.86222 33V37ZM3.66614 34.0015C4.70055 35.7896 6.63885 37 8.86222 37V33C8.12445 33 7.47739 32.6016 7.12856 31.9985L3.66614 34.0015ZM0.161621 35H5.39735V31H0.161621V35ZM2.16162 49V33H-1.83838V49H2.16162ZM5.39735 47H0.161621V51H5.39735V47ZM8.86222 45C6.63885 45 4.70055 46.2104 3.66614 47.9985L7.12856 50.0015C7.47739 49.3984 8.12445 49 8.86222 49V45ZM14.8622 51C14.8622 47.6863 12.1759 45 8.86222 45V49C9.96679 49 10.8622 49.8954 10.8622 51H14.8622ZM8.86222 57C12.1759 57 14.8622 54.3137 14.8622 51H10.8622C10.8622 52.1046 9.96679 53 8.86222 53V57ZM3.66614 54.0015C4.70055 55.7896 6.63885 57 8.86222 57V53C8.12445 53 7.47739 52.6016 7.12856 51.9985L3.66614 54.0015ZM0.161621 55H5.39735V51H0.161621V55ZM2.16162 69V53H-1.83838V69H2.16162ZM5.39735 67H0.161621V71H5.39735V67ZM8.86222 65C6.63886 65 4.70055 66.2104 3.66614 67.9985L7.12856 70.0015C7.47739 69.3984 8.12446 69 8.86222 69V65ZM14.8622 71C14.8622 67.6863 12.1759 65 8.86222 65V69C9.96679 69 10.8622 69.8954 10.8622 71H14.8622ZM8.86222 77C12.1759 77 14.8622 74.3137 14.8622 71H10.8622C10.8622 72.1046 9.96679 73 8.86222 73V77ZM3.66614 74.0015C4.70055 75.7896 6.63886 77 8.86222 77V73C8.12446 73 7.47739 72.6016 7.12856 71.9985L3.66614 74.0015ZM0.161621 75H5.39735V71H0.161621V75ZM2.16162 89V73H-1.83838V89H2.16162ZM5.39735 87H0.161621V91H5.39735V87ZM8.86222 85C6.63886 85 4.70055 86.2104 3.66614 87.9985L7.12856 90.0015C7.47739 89.3984 8.12446 89 8.86222 89V85ZM14.8622 91C14.8622 87.6863 12.1759 85 8.86222 85V89C9.96679 89 10.8622 89.8954 10.8622 91H14.8622ZM8.86222 97C12.1759 97 14.8622 94.3137 14.8622 91H10.8622C10.8622 92.1046 9.96679 93 8.86222 93V97ZM3.66614 94.0015C4.70055 95.7896 6.63886 97 8.86222 97V93C8.12446 93 7.47739 92.6016 7.12856 91.9985L3.66614 94.0015ZM0.161621 95H5.39735V91H0.161621V95ZM2.16162 109V93H-1.83838V109H2.16162ZM5.39735 107H0.161621V111H5.39735V107ZM8.86222 105C6.63886 105 4.70055 106.21 3.66614 107.999L7.12856 110.001C7.47739 109.398 8.12446 109 8.86222 109V105ZM14.8622 111C14.8622 107.686 12.1759 105 8.86222 105V109C9.96679 109 10.8622 109.895 10.8622 111H14.8622ZM8.86222 117C12.1759 117 14.8622 114.314 14.8622 111H10.8622C10.8622 112.105 9.96679 113 8.86222 113V117ZM3.66614 114.001C4.70055 115.79 6.63886 117 8.86222 117V113C8.12446 113 7.47739 112.602 7.12856 111.999L3.66614 114.001ZM0.161621 115H5.39735V111H0.161621V115ZM2.16162 129V113H-1.83838V129H2.16162ZM5.39735 127H0.161621V131H5.39735V127ZM8.86222 125C6.63886 125 4.70055 126.21 3.66614 127.999L7.12856 130.001C7.47739 129.398 8.12446 129 8.86222 129V125ZM14.8622 131C14.8622 127.686 12.1759 125 8.86222 125V129C9.96679 129 10.8622 129.895 10.8622 131H14.8622ZM8.86222 137C12.1759 137 14.8622 134.314 14.8622 131H10.8622C10.8622 132.105 9.96679 133 8.86222 133V137ZM3.66614 134.001C4.70055 135.79 6.63886 137 8.86222 137V133C8.12446 133 7.47739 132.602 7.12856 131.999L3.66614 134.001ZM0.161621 135H5.39735V131H0.161621V135ZM2.16162 168V133H-1.83838V168H2.16162ZM4.16162 170C3.05705 170 2.16162 169.105 2.16162 168H-1.83838C-1.83838 171.314 0.847911 174 4.16162 174V170ZM29.0299 170H4.16162V174H29.0299V170ZM31.0299 172V0H27.0299V172H31.0299ZM127.994 170H31.0299V174H127.994V170ZM129.994 168C129.994 169.105 129.099 170 127.994 170V174C131.308 174 133.994 171.314 133.994 168H129.994ZM129.994 4V168H133.994V4H129.994ZM127.994 2C129.099 2 129.994 2.89543 129.994 4H133.994C133.994 0.686291 131.308 -2 127.994 -2V2ZM31.0299 2H127.994V-2H31.0299V2ZM29.0299 0V172H33.0299V0H29.0299Z" fill="#15803D" mask="url(#path-1-inside-1_120_356)"/>
<g clip-path="url(#clip0_120_356)">
<path d="M74.7592 32.0003C73.1935 32.0076 71.6983 32.1411 70.3827 32.3739C66.507 33.0586 65.8034 34.4918 65.8034 37.1347V40.6252H74.962V41.7887H65.8034H62.3662C59.7045 41.7887 57.3738 43.3886 56.6447 46.4321C55.8038 49.9206 55.7665 52.0976 56.6447 55.7402C57.2958 58.4516 58.8505 60.3835 61.5123 60.3835H64.6612V56.1992C64.6612 53.1762 67.2767 50.5097 70.3827 50.5097H79.5306C82.0771 50.5097 84.11 48.413 84.11 45.8557V37.1347C84.11 34.6527 82.0161 32.7882 79.5306 32.3739C77.9573 32.112 76.3249 31.993 74.7592 32.0003ZM69.8063 34.8077C70.7523 34.8077 71.5248 35.5929 71.5248 36.5583C71.5248 37.5203 70.7523 38.2982 69.8063 38.2982C68.8569 38.2982 68.0877 37.5203 68.0877 36.5583C68.0877 35.5929 68.8569 34.8077 69.8063 34.8077Z" fill="url(#paint0_linear_120_356)"/>
<path d="M85.2521 41.7888V45.8557C85.2521 49.0087 82.5789 51.6626 79.5306 51.6626H70.3827C67.8769 51.6626 65.8033 53.8072 65.8033 56.3166V65.0376C65.8033 67.5196 67.9617 68.9795 70.3827 69.6916C73.2818 70.5441 76.0619 70.6981 79.5306 69.6916C81.8363 69.024 84.1099 67.6805 84.1099 65.0376V61.5471H74.962V60.3835H84.1099H88.6892C91.351 60.3835 92.3429 58.5269 93.2686 55.7402C94.2247 52.8713 94.1841 50.1124 93.2686 46.4321C92.6107 43.7823 91.3544 41.7888 88.6892 41.7888H85.2521ZM80.107 63.8741C81.0564 63.8741 81.8256 64.652 81.8256 65.614C81.8256 66.5794 81.0564 67.3646 80.107 67.3646C79.161 67.3646 78.3885 66.5794 78.3885 65.614C78.3885 64.652 79.161 63.8741 80.107 63.8741Z" fill="url(#paint1_linear_120_356)"/>
</g>
<path d="M43.4191 102.994H93.4191" stroke="white" stroke-width="5" stroke-linecap="round"/>
<path d="M43.4191 114.994H118.419" stroke="white" stroke-width="5" stroke-linecap="round"/>
<path d="M43.4191 126.994H68.4191" stroke="white" stroke-width="5" stroke-linecap="round"/>
<defs>
<linearGradient id="paint0_linear_120_356" x1="56" y1="32" x2="77.1188" y2="49.9961" gradientUnits="userSpaceOnUse">
<stop stop-color="#5A9FD4"/>
<stop offset="1" stop-color="#306998"/>
</linearGradient>
<linearGradient id="paint1_linear_120_356" x1="79.8869" y1="65.3205" x2="72.3103" y2="54.7034" gradientUnits="userSpaceOnUse">
<stop stop-color="#FFD43B"/>
<stop offset="1" stop-color="#FFE873"/>
</linearGradient>
<clipPath id="clip0_120_356">
<rect width="37.9706" height="46" fill="white" transform="translate(56 32)"/>
</clipPath>
</defs>
</svg>
