<svg width="133" height="172" viewBox="0 0 133 172" fill="none" xmlns="http://www.w3.org/2000/svg">
<mask id="path-1-inside-1_2303_2" fill="white">
<path fill-rule="evenodd" clip-rule="evenodd" d="M29.6947 0H4.82642C2.61728 0 0.826416 1.79086 0.826416 4V29H6.06214C6.75376 27.8044 8.04645 27 9.52701 27C11.7362 27 13.527 28.7909 13.527 31C13.527 33.2091 11.7362 35 9.52701 35C8.04645 35 6.75376 34.1956 6.06214 33H0.826416V49H6.06214C6.75376 47.8044 8.04645 47 9.52701 47C11.7362 47 13.527 48.7909 13.527 51C13.527 53.2091 11.7362 55 9.52701 55C8.04645 55 6.75376 54.1956 6.06214 53H0.826416V69H6.06214C6.75376 67.8044 8.04645 67 9.52701 67C11.7362 67 13.527 68.7909 13.527 71C13.527 73.2091 11.7362 75 9.52701 75C8.04645 75 6.75376 74.1956 6.06214 73H0.826416V89H6.06214C6.75376 87.8044 8.04645 87 9.52701 87C11.7362 87 13.527 88.7909 13.527 91C13.527 93.2091 11.7362 95 9.52701 95C8.04645 95 6.75376 94.1956 6.06214 93H0.826416V109H6.06214C6.75376 107.804 8.04645 107 9.52701 107C11.7362 107 13.527 108.791 13.527 111C13.527 113.209 11.7362 115 9.52701 115C8.04645 115 6.75376 114.196 6.06214 113H0.826416V129H6.06214C6.75376 127.804 8.04645 127 9.52701 127C11.7362 127 13.527 128.791 13.527 131C13.527 133.209 11.7362 135 9.52701 135C8.04645 135 6.75376 134.196 6.06214 133H0.826416V168C0.826416 170.209 2.61728 172 4.82642 172H29.6947V0ZM31.6947 172H128.659C130.868 172 132.659 170.209 132.659 168V4C132.659 1.79086 130.868 0 128.659 0H31.6947V172Z"/>
</mask>
<path fill-rule="evenodd" clip-rule="evenodd" d="M29.6947 0H4.82642C2.61728 0 0.826416 1.79086 0.826416 4V29H6.06214C6.75376 27.8044 8.04645 27 9.52701 27C11.7362 27 13.527 28.7909 13.527 31C13.527 33.2091 11.7362 35 9.52701 35C8.04645 35 6.75376 34.1956 6.06214 33H0.826416V49H6.06214C6.75376 47.8044 8.04645 47 9.52701 47C11.7362 47 13.527 48.7909 13.527 51C13.527 53.2091 11.7362 55 9.52701 55C8.04645 55 6.75376 54.1956 6.06214 53H0.826416V69H6.06214C6.75376 67.8044 8.04645 67 9.52701 67C11.7362 67 13.527 68.7909 13.527 71C13.527 73.2091 11.7362 75 9.52701 75C8.04645 75 6.75376 74.1956 6.06214 73H0.826416V89H6.06214C6.75376 87.8044 8.04645 87 9.52701 87C11.7362 87 13.527 88.7909 13.527 91C13.527 93.2091 11.7362 95 9.52701 95C8.04645 95 6.75376 94.1956 6.06214 93H0.826416V109H6.06214C6.75376 107.804 8.04645 107 9.52701 107C11.7362 107 13.527 108.791 13.527 111C13.527 113.209 11.7362 115 9.52701 115C8.04645 115 6.75376 114.196 6.06214 113H0.826416V129H6.06214C6.75376 127.804 8.04645 127 9.52701 127C11.7362 127 13.527 128.791 13.527 131C13.527 133.209 11.7362 135 9.52701 135C8.04645 135 6.75376 134.196 6.06214 133H0.826416V168C0.826416 170.209 2.61728 172 4.82642 172H29.6947V0ZM31.6947 172H128.659C130.868 172 132.659 170.209 132.659 168V4C132.659 1.79086 130.868 0 128.659 0H31.6947V172Z" fill="#FFC5C5"/>
<path d="M29.6947 0H31.6947V-2H29.6947V0ZM0.826416 29H-1.17358V31H0.826416V29ZM6.06214 29V31H7.21573L7.79336 30.0015L6.06214 29ZM6.06214 33L7.79335 31.9985L7.21573 31H6.06214V33ZM0.826416 33V31H-1.17358V33H0.826416ZM0.826416 49H-1.17358V51H0.826416V49ZM6.06214 49V51H7.21573L7.79335 50.0015L6.06214 49ZM6.06214 53L7.79335 51.9985L7.21573 51H6.06214V53ZM0.826416 53V51H-1.17358V53H0.826416ZM0.826416 69H-1.17358V71H0.826416V69ZM6.06214 69V71H7.21573L7.79336 70.0015L6.06214 69ZM6.06214 73L7.79336 71.9985L7.21573 71H6.06214V73ZM0.826416 73V71H-1.17358V73H0.826416ZM0.826416 89H-1.17358V91H0.826416V89ZM6.06214 89V91H7.21573L7.79336 90.0015L6.06214 89ZM6.06214 93L7.79336 91.9985L7.21573 91H6.06214V93ZM0.826416 93V91H-1.17358V93H0.826416ZM0.826416 109H-1.17358V111H0.826416V109ZM6.06214 109V111H7.21573L7.79336 110.001L6.06214 109ZM6.06214 113L7.79336 111.999L7.21573 111H6.06214V113ZM0.826416 113V111H-1.17358V113H0.826416ZM0.826416 129H-1.17358V131H0.826416V129ZM6.06214 129V131H7.21573L7.79336 130.001L6.06214 129ZM6.06214 133L7.79336 131.999L7.21573 131H6.06214V133ZM0.826416 133V131H-1.17358V133H0.826416ZM29.6947 172V174H31.6947V172H29.6947ZM31.6947 172H29.6947V174H31.6947V172ZM31.6947 0V-2H29.6947V0H31.6947ZM4.82642 2H29.6947V-2H4.82642V2ZM2.82642 4C2.82642 2.89543 3.72185 2 4.82642 2V-2C1.51271 -2 -1.17358 0.686295 -1.17358 4H2.82642ZM2.82642 29V4H-1.17358V29H2.82642ZM6.06214 27H0.826416V31H6.06214V27ZM9.52701 25C7.30365 25 5.36534 26.2104 4.33093 27.9985L7.79336 30.0015C8.14218 29.3984 8.78925 29 9.52701 29V25ZM15.527 31C15.527 27.6863 12.8407 25 9.52701 25V29C10.6316 29 11.527 29.8954 11.527 31H15.527ZM9.52701 37C12.8407 37 15.527 34.3137 15.527 31H11.527C11.527 32.1046 10.6316 33 9.52701 33V37ZM4.33093 34.0015C5.36534 35.7896 7.30365 37 9.52701 37V33C8.78925 33 8.14218 32.6016 7.79335 31.9985L4.33093 34.0015ZM0.826416 35H6.06214V31H0.826416V35ZM2.82642 49V33H-1.17358V49H2.82642ZM6.06214 47H0.826416V51H6.06214V47ZM9.52701 45C7.30365 45 5.36534 46.2104 4.33093 47.9985L7.79335 50.0015C8.14218 49.3984 8.78925 49 9.52701 49V45ZM15.527 51C15.527 47.6863 12.8407 45 9.52701 45V49C10.6316 49 11.527 49.8954 11.527 51H15.527ZM9.52701 57C12.8407 57 15.527 54.3137 15.527 51H11.527C11.527 52.1046 10.6316 53 9.52701 53V57ZM4.33093 54.0015C5.36534 55.7896 7.30365 57 9.52701 57V53C8.78925 53 8.14218 52.6016 7.79335 51.9985L4.33093 54.0015ZM0.826416 55H6.06214V51H0.826416V55ZM2.82642 69V53H-1.17358V69H2.82642ZM6.06214 67H0.826416V71H6.06214V67ZM9.52701 65C7.30365 65 5.36534 66.2104 4.33093 67.9985L7.79336 70.0015C8.14218 69.3984 8.78925 69 9.52701 69V65ZM15.527 71C15.527 67.6863 12.8407 65 9.52701 65V69C10.6316 69 11.527 69.8954 11.527 71H15.527ZM9.52701 77C12.8407 77 15.527 74.3137 15.527 71H11.527C11.527 72.1046 10.6316 73 9.52701 73V77ZM4.33093 74.0015C5.36534 75.7896 7.30365 77 9.52701 77V73C8.78925 73 8.14218 72.6016 7.79336 71.9985L4.33093 74.0015ZM0.826416 75H6.06214V71H0.826416V75ZM2.82642 89V73H-1.17358V89H2.82642ZM6.06214 87H0.826416V91H6.06214V87ZM9.52701 85C7.30365 85 5.36534 86.2104 4.33093 87.9985L7.79336 90.0015C8.14218 89.3984 8.78925 89 9.52701 89V85ZM15.527 91C15.527 87.6863 12.8407 85 9.52701 85V89C10.6316 89 11.527 89.8954 11.527 91H15.527ZM9.52701 97C12.8407 97 15.527 94.3137 15.527 91H11.527C11.527 92.1046 10.6316 93 9.52701 93V97ZM4.33093 94.0015C5.36534 95.7896 7.30365 97 9.52701 97V93C8.78925 93 8.14218 92.6016 7.79336 91.9985L4.33093 94.0015ZM0.826416 95H6.06214V91H0.826416V95ZM2.82642 109V93H-1.17358V109H2.82642ZM6.06214 107H0.826416V111H6.06214V107ZM9.52701 105C7.30365 105 5.36534 106.21 4.33093 107.999L7.79336 110.001C8.14218 109.398 8.78925 109 9.52701 109V105ZM15.527 111C15.527 107.686 12.8407 105 9.52701 105V109C10.6316 109 11.527 109.895 11.527 111H15.527ZM9.52701 117C12.8407 117 15.527 114.314 15.527 111H11.527C11.527 112.105 10.6316 113 9.52701 113V117ZM4.33093 114.001C5.36534 115.79 7.30365 117 9.52701 117V113C8.78925 113 8.14218 112.602 7.79336 111.999L4.33093 114.001ZM0.826416 115H6.06214V111H0.826416V115ZM2.82642 129V113H-1.17358V129H2.82642ZM6.06214 127H0.826416V131H6.06214V127ZM9.52701 125C7.30365 125 5.36534 126.21 4.33093 127.999L7.79336 130.001C8.14218 129.398 8.78925 129 9.52701 129V125ZM15.527 131C15.527 127.686 12.8407 125 9.52701 125V129C10.6316 129 11.527 129.895 11.527 131H15.527ZM9.52701 137C12.8407 137 15.527 134.314 15.527 131H11.527C11.527 132.105 10.6316 133 9.52701 133V137ZM4.33093 134.001C5.36534 135.79 7.30365 137 9.52701 137V133C8.78925 133 8.14218 132.602 7.79336 131.999L4.33093 134.001ZM0.826416 135H6.06214V131H0.826416V135ZM2.82642 168V133H-1.17358V168H2.82642ZM4.82642 170C3.72185 170 2.82642 169.105 2.82642 168H-1.17358C-1.17358 171.314 1.51271 174 4.82642 174V170ZM29.6947 170H4.82642V174H29.6947V170ZM31.6947 172V0H27.6947V172H31.6947ZM128.659 170H31.6947V174H128.659V170ZM130.659 168C130.659 169.105 129.763 170 128.659 170V174C131.972 174 134.659 171.314 134.659 168H130.659ZM130.659 4V168H134.659V4H130.659ZM128.659 2C129.763 2 130.659 2.89543 130.659 4H134.659C134.659 0.686291 131.972 -2 128.659 -2V2ZM31.6947 2H128.659V-2H31.6947V2ZM29.6947 0V172H33.6947V0H29.6947Z" fill="#FF686B" mask="url(#path-1-inside-1_2303_2)"/>
<g clip-path="url(#clip0_2303_2)">
<path d="M116 27H44V75H116V27Z" fill="white"/>
<path d="M80 65.4C87.9529 65.4 94.4 58.9529 94.4 51C94.4 43.0471 87.9529 36.6 80 36.6C72.0471 36.6 65.6 43.0471 65.6 51C65.6 58.9529 72.0471 65.4 80 65.4Z" fill="#BC002D"/>
</g>
<path d="M44.0839 102.994H94.0839" stroke="white" stroke-width="5" stroke-linecap="round"/>
<path d="M44.0839 114.994H119.084" stroke="white" stroke-width="5" stroke-linecap="round"/>
<path d="M44.0839 126.994H69.0839" stroke="white" stroke-width="5" stroke-linecap="round"/>
<defs>
<clipPath id="clip0_2303_2">
<rect width="72" height="48" fill="white" transform="translate(44 27)"/>
</clipPath>
</defs>
</svg>
