<svg width="133" height="172" viewBox="0 0 133 172" fill="none" xmlns="http://www.w3.org/2000/svg">
<mask id="path-1-inside-1_119_85" fill="white">
<path fill-rule="evenodd" clip-rule="evenodd" d="M29.5329 0H4.66467C2.45553 0 0.664673 1.79086 0.664673 4V29H5.9004C6.59202 27.8044 7.88471 27 9.36527 27C11.5744 27 13.3653 28.7909 13.3653 31C13.3653 33.2091 11.5744 35 9.36527 35C7.88471 35 6.59202 34.1956 5.9004 33H0.664673V49H5.9004C6.59202 47.8044 7.88471 47 9.36527 47C11.5744 47 13.3653 48.7909 13.3653 51C13.3653 53.2091 11.5744 55 9.36527 55C7.88471 55 6.59202 54.1956 5.9004 53H0.664673V69H5.9004C6.59202 67.8044 7.88471 67 9.36527 67C11.5744 67 13.3653 68.7909 13.3653 71C13.3653 73.2091 11.5744 75 9.36527 75C7.88471 75 6.59202 74.1956 5.9004 73H0.664673V89H5.9004C6.59202 87.8044 7.88471 87 9.36527 87C11.5744 87 13.3653 88.7909 13.3653 91C13.3653 93.2091 11.5744 95 9.36527 95C7.88471 95 6.59202 94.1956 5.9004 93H0.664673V109H5.9004C6.59202 107.804 7.88471 107 9.36527 107C11.5744 107 13.3653 108.791 13.3653 111C13.3653 113.209 11.5744 115 9.36527 115C7.88471 115 6.59202 114.196 5.9004 113H0.664673V129H5.9004C6.59202 127.804 7.88471 127 9.36527 127C11.5744 127 13.3653 128.791 13.3653 131C13.3653 133.209 11.5744 135 9.36527 135C7.88471 135 6.59202 134.196 5.9004 133H0.664673V168C0.664673 170.209 2.45553 172 4.66467 172H29.5329V0ZM31.5329 172H128.497C130.706 172 132.497 170.209 132.497 168V4C132.497 1.79086 130.706 0 128.497 0H31.5329V172Z"/>
</mask>
<path fill-rule="evenodd" clip-rule="evenodd" d="M29.5329 0H4.66467C2.45553 0 0.664673 1.79086 0.664673 4V29H5.9004C6.59202 27.8044 7.88471 27 9.36527 27C11.5744 27 13.3653 28.7909 13.3653 31C13.3653 33.2091 11.5744 35 9.36527 35C7.88471 35 6.59202 34.1956 5.9004 33H0.664673V49H5.9004C6.59202 47.8044 7.88471 47 9.36527 47C11.5744 47 13.3653 48.7909 13.3653 51C13.3653 53.2091 11.5744 55 9.36527 55C7.88471 55 6.59202 54.1956 5.9004 53H0.664673V69H5.9004C6.59202 67.8044 7.88471 67 9.36527 67C11.5744 67 13.3653 68.7909 13.3653 71C13.3653 73.2091 11.5744 75 9.36527 75C7.88471 75 6.59202 74.1956 5.9004 73H0.664673V89H5.9004C6.59202 87.8044 7.88471 87 9.36527 87C11.5744 87 13.3653 88.7909 13.3653 91C13.3653 93.2091 11.5744 95 9.36527 95C7.88471 95 6.59202 94.1956 5.9004 93H0.664673V109H5.9004C6.59202 107.804 7.88471 107 9.36527 107C11.5744 107 13.3653 108.791 13.3653 111C13.3653 113.209 11.5744 115 9.36527 115C7.88471 115 6.59202 114.196 5.9004 113H0.664673V129H5.9004C6.59202 127.804 7.88471 127 9.36527 127C11.5744 127 13.3653 128.791 13.3653 131C13.3653 133.209 11.5744 135 9.36527 135C7.88471 135 6.59202 134.196 5.9004 133H0.664673V168C0.664673 170.209 2.45553 172 4.66467 172H29.5329V0ZM31.5329 172H128.497C130.706 172 132.497 170.209 132.497 168V4C132.497 1.79086 130.706 0 128.497 0H31.5329V172Z" fill="#10B981"/>
<path d="M29.5329 0H31.5329V-2H29.5329V0ZM0.664673 29H-1.33533V31H0.664673V29ZM5.9004 29V31H7.05398L7.63161 30.0015L5.9004 29ZM5.9004 33L7.63161 31.9985L7.05398 31H5.9004V33ZM0.664673 33V31H-1.33533V33H0.664673ZM0.664673 49H-1.33533V51H0.664673V49ZM5.9004 49V51H7.05398L7.63161 50.0015L5.9004 49ZM5.9004 53L7.63161 51.9985L7.05398 51H5.9004V53ZM0.664673 53V51H-1.33533V53H0.664673ZM0.664673 69H-1.33533V71H0.664673V69ZM5.9004 69V71H7.05398L7.63161 70.0015L5.9004 69ZM5.9004 73L7.63161 71.9985L7.05398 71H5.9004V73ZM0.664673 73V71H-1.33533V73H0.664673ZM0.664673 89H-1.33533V91H0.664673V89ZM5.9004 89V91H7.05398L7.63161 90.0015L5.9004 89ZM5.9004 93L7.63161 91.9985L7.05398 91H5.9004V93ZM0.664673 93V91H-1.33533V93H0.664673ZM0.664673 109H-1.33533V111H0.664673V109ZM5.9004 109V111H7.05398L7.63161 110.001L5.9004 109ZM5.9004 113L7.63161 111.999L7.05398 111H5.9004V113ZM0.664673 113V111H-1.33533V113H0.664673ZM0.664673 129H-1.33533V131H0.664673V129ZM5.9004 129V131H7.05398L7.63161 130.001L5.9004 129ZM5.9004 133L7.63161 131.999L7.05398 131H5.9004V133ZM0.664673 133V131H-1.33533V133H0.664673ZM29.5329 172V174H31.5329V172H29.5329ZM31.5329 172H29.5329V174H31.5329V172ZM31.5329 0V-2H29.5329V0H31.5329ZM4.66467 2H29.5329V-2H4.66467V2ZM2.66467 4C2.66467 2.89543 3.5601 2 4.66467 2V-2C1.35096 -2 -1.33533 0.686295 -1.33533 4H2.66467ZM2.66467 29V4H-1.33533V29H2.66467ZM5.9004 27H0.664673V31H5.9004V27ZM9.36527 25C7.14191 25 5.2036 26.2104 4.16919 27.9985L7.63161 30.0015C7.98044 29.3984 8.62751 29 9.36527 29V25ZM15.3653 31C15.3653 27.6863 12.679 25 9.36527 25V29C10.4698 29 11.3653 29.8954 11.3653 31H15.3653ZM9.36527 37C12.679 37 15.3653 34.3137 15.3653 31H11.3653C11.3653 32.1046 10.4698 33 9.36527 33V37ZM4.16919 34.0015C5.2036 35.7896 7.14191 37 9.36527 37V33C8.62751 33 7.98044 32.6016 7.63161 31.9985L4.16919 34.0015ZM0.664673 35H5.9004V31H0.664673V35ZM2.66467 49V33H-1.33533V49H2.66467ZM5.9004 47H0.664673V51H5.9004V47ZM9.36527 45C7.14191 45 5.2036 46.2104 4.16919 47.9985L7.63161 50.0015C7.98044 49.3984 8.62751 49 9.36527 49V45ZM15.3653 51C15.3653 47.6863 12.679 45 9.36527 45V49C10.4698 49 11.3653 49.8954 11.3653 51H15.3653ZM9.36527 57C12.679 57 15.3653 54.3137 15.3653 51H11.3653C11.3653 52.1046 10.4698 53 9.36527 53V57ZM4.16919 54.0015C5.2036 55.7896 7.14191 57 9.36527 57V53C8.62751 53 7.98044 52.6016 7.63161 51.9985L4.16919 54.0015ZM0.664673 55H5.9004V51H0.664673V55ZM2.66467 69V53H-1.33533V69H2.66467ZM5.9004 67H0.664673V71H5.9004V67ZM9.36527 65C7.14191 65 5.2036 66.2104 4.16919 67.9985L7.63161 70.0015C7.98044 69.3984 8.62751 69 9.36527 69V65ZM15.3653 71C15.3653 67.6863 12.679 65 9.36527 65V69C10.4698 69 11.3653 69.8954 11.3653 71H15.3653ZM9.36527 77C12.679 77 15.3653 74.3137 15.3653 71H11.3653C11.3653 72.1046 10.4698 73 9.36527 73V77ZM4.16919 74.0015C5.2036 75.7896 7.14191 77 9.36527 77V73C8.62751 73 7.98044 72.6016 7.63161 71.9985L4.16919 74.0015ZM0.664673 75H5.9004V71H0.664673V75ZM2.66467 89V73H-1.33533V89H2.66467ZM5.9004 87H0.664673V91H5.9004V87ZM9.36527 85C7.14191 85 5.2036 86.2104 4.16919 87.9985L7.63161 90.0015C7.98044 89.3984 8.62751 89 9.36527 89V85ZM15.3653 91C15.3653 87.6863 12.679 85 9.36527 85V89C10.4698 89 11.3653 89.8954 11.3653 91H15.3653ZM9.36527 97C12.679 97 15.3653 94.3137 15.3653 91H11.3653C11.3653 92.1046 10.4698 93 9.36527 93V97ZM4.16919 94.0015C5.2036 95.7896 7.14191 97 9.36527 97V93C8.62751 93 7.98044 92.6016 7.63161 91.9985L4.16919 94.0015ZM0.664673 95H5.9004V91H0.664673V95ZM2.66467 109V93H-1.33533V109H2.66467ZM5.9004 107H0.664673V111H5.9004V107ZM9.36527 105C7.14191 105 5.2036 106.21 4.16919 107.999L7.63161 110.001C7.98044 109.398 8.62751 109 9.36527 109V105ZM15.3653 111C15.3653 107.686 12.679 105 9.36527 105V109C10.4698 109 11.3653 109.895 11.3653 111H15.3653ZM9.36527 117C12.679 117 15.3653 114.314 15.3653 111H11.3653C11.3653 112.105 10.4698 113 9.36527 113V117ZM4.16919 114.001C5.2036 115.79 7.14191 117 9.36527 117V113C8.62751 113 7.98044 112.602 7.63161 111.999L4.16919 114.001ZM0.664673 115H5.9004V111H0.664673V115ZM2.66467 129V113H-1.33533V129H2.66467ZM5.9004 127H0.664673V131H5.9004V127ZM9.36527 125C7.14191 125 5.2036 126.21 4.16919 127.999L7.63161 130.001C7.98044 129.398 8.62751 129 9.36527 129V125ZM15.3653 131C15.3653 127.686 12.679 125 9.36527 125V129C10.4698 129 11.3653 129.895 11.3653 131H15.3653ZM9.36527 137C12.679 137 15.3653 134.314 15.3653 131H11.3653C11.3653 132.105 10.4698 133 9.36527 133V137ZM4.16919 134.001C5.2036 135.79 7.14191 137 9.36527 137V133C8.62751 133 7.98044 132.602 7.63161 131.999L4.16919 134.001ZM0.664673 135H5.9004V131H0.664673V135ZM2.66467 168V133H-1.33533V168H2.66467ZM4.66467 170C3.5601 170 2.66467 169.105 2.66467 168H-1.33533C-1.33533 171.314 1.35096 174 4.66467 174V170ZM29.5329 170H4.66467V174H29.5329V170ZM31.5329 172V0H27.5329V172H31.5329ZM128.497 170H31.5329V174H128.497V170ZM130.497 168C130.497 169.105 129.602 170 128.497 170V174C131.811 174 134.497 171.314 134.497 168H130.497ZM130.497 4V168H134.497V4H130.497ZM128.497 2C129.602 2 130.497 2.89543 130.497 4H134.497C134.497 0.686291 131.811 -2 128.497 -2V2ZM31.5329 2H128.497V-2H31.5329V2ZM29.5329 0V172H33.5329V0H29.5329Z" fill="#134E4A" mask="url(#path-1-inside-1_119_85)"/>
<circle cx="48.6829" cy="45.6829" r="6.68293" fill="#FBBF24" stroke="#020617" stroke-width="4"/>
<circle cx="71.3171" cy="66.7561" r="6.68293" fill="#FBBF24" stroke="#020617" stroke-width="4"/>
<circle cx="103.317" cy="66.7561" r="6.68293" fill="#FBBF24" stroke="#020617" stroke-width="4"/>
<path d="M79 68H96" stroke="#020617" stroke-width="5" stroke-linecap="round"/>
<path d="M54 51L65 62" stroke="#020617" stroke-width="5" stroke-linecap="round"/>
<path d="M43.9222 102.994H93.9222" stroke="white" stroke-width="5" stroke-linecap="round"/>
<path d="M43.9222 114.994H118.922" stroke="white" stroke-width="5" stroke-linecap="round"/>
<path d="M43.9222 126.994H68.9222" stroke="white" stroke-width="5" stroke-linecap="round"/>
</svg>
