<?xml version="1.0" standalone="no"?>
<!DOCTYPE svg PUBLIC "-//W3C//DTD SVG 1.1//EN" "http://www.w3.org/Graphics/SVG/1.1/DTD/svg11.dtd">
<svg version="1.1" xmlns="http://www.w3.org/2000/svg" viewBox="0 0 251.5 315" width="251.5" height="315"><!-- svg-source:excalidraw --><metadata></metadata><defs><style class="style-fonts">
      </style></defs><g stroke-linecap="round" transform="translate(10 138) rotate(0 23 22.5)"><path d="M11.25 0 C17.84 1.54, 28.94 -1.8, 34.75 0 M11.25 0 C20.01 0.78, 28.4 -0.41, 34.75 0 M34.75 0 C43.73 -1.15, 46.64 4.72, 46 11.25 M34.75 0 C41.54 1.69, 43.73 2.26, 46 11.25 M46 11.25 C44.56 21.9, 44.81 31.09, 46 33.75 M46 11.25 C45.48 16.88, 46.06 23.65, 46 33.75 M46 33.75 C46.91 40.03, 43.29 45.18, 34.75 45 M46 33.75 C43.94 40.07, 41.4 44.53, 34.75 45 M34.75 45 C28.13 46.15, 21.66 43.2, 11.25 45 M34.75 45 C26.31 45.75, 20.11 45.56, 11.25 45 M11.25 45 C3.02 46.84, 1.54 40.85, 0 33.75 M11.25 45 C2.56 46.49, -0.54 42.15, 0 33.75 M0 33.75 C-0.54 27.93, 0.57 19.62, 0 11.25 M0 33.75 C-0.22 26.52, -1.05 20.24, 0 11.25 M0 11.25 C-0.81 2.16, 4.21 1.95, 11.25 0 M0 11.25 C0.67 4.46, 2.89 1.23, 11.25 0" stroke="#1e1e1e" stroke-width="4" fill="none"></path></g><g stroke-linecap="round" transform="translate(195.5 10) rotate(0 23 22.5)"><path d="M11.25 0 C18.42 1.78, 27.68 -0.7, 34.75 0 M11.25 0 C17.13 -0.4, 23.23 -0.4, 34.75 0 M34.75 0 C43.29 0.18, 44.21 2.73, 46 11.25 M34.75 0 C41.4 -0.47, 45.89 5.17, 46 11.25 M46 11.25 C46.83 16.6, 46.55 24.73, 46 33.75 M46 11.25 C46.49 20.24, 45.46 29.43, 46 33.75 M46 33.75 C47.54 40.85, 41.22 46.29, 34.75 45 M46 33.75 C45.46 42.15, 42.21 45.97, 34.75 45 M34.75 45 C26.76 44.39, 17.43 45.68, 11.25 45 M34.75 45 C26.97 44.89, 20.75 44.09, 11.25 45 M11.25 45 C4.21 46.95, 0.58 41.86, 0 33.75 M11.25 45 C2.89 46.23, 0.97 42.42, 0 33.75 M0 33.75 C-0.18 25.18, -1.32 16.66, 0 11.25 M0 33.75 C0.93 25.44, 0.34 16.31, 0 11.25 M0 11.25 C-1.15 3.7, 2.05 -0.51, 11.25 0 M0 11.25 C0.89 6.01, 4.77 -0.71, 11.25 0" stroke="#1e1e1e" stroke-width="4" fill="none"></path></g><g stroke-linecap="round" transform="translate(195.5 135) rotate(0 23 22.5)"><path d="M11.25 0 C15.17 -2.19, 23.66 0.83, 34.75 0 M11.25 0 C18.66 -0.72, 25.88 0.52, 34.75 0 M34.75 0 C44.21 0.89, 45.38 5.15, 46 11.25 M34.75 0 C41.46 0.93, 45.16 4.92, 46 11.25 M46 11.25 C43.99 20.15, 46.23 28.73, 46 33.75 M46 11.25 C46.42 20.3, 45.69 26.91, 46 33.75 M46 33.75 C45.86 41.12, 43.03 46.87, 34.75 45 M46 33.75 C47.29 40.59, 42.61 43.77, 34.75 45 M34.75 45 C26.92 44.9, 18.38 45.96, 11.25 45 M34.75 45 C25.95 44.85, 16.05 44.68, 11.25 45 M11.25 45 C1.87 45.87, 1.42 39.85, 0 33.75 M11.25 45 C2.82 44.07, 0.19 41.45, 0 33.75 M0 33.75 C-1.31 25.4, -0.2 16.65, 0 11.25 M0 33.75 C-0.12 28.01, 0.71 21.5, 0 11.25 M0 11.25 C-0.76 3.96, 4.77 1.59, 11.25 0 M0 11.25 C-0.49 4.56, 4.14 0.96, 11.25 0" stroke="#1e1e1e" stroke-width="4" fill="none"></path></g><g stroke-linecap="round" transform="translate(195.5 260) rotate(0 23 22.5)"><path d="M11.25 0 C20.56 0.17, 26.88 0.1, 34.75 0 M11.25 0 C19.85 0.22, 28.15 -0.25, 34.75 0 M34.75 0 C42.14 1.92, 44.06 4.23, 46 11.25 M34.75 0 C43.88 1.65, 47.77 3.01, 46 11.25 M46 11.25 C45.35 18.16, 46.86 24.07, 46 33.75 M46 11.25 C45.64 16.08, 46.65 22.38, 46 33.75 M46 33.75 C47.79 39.97, 44.05 45.81, 34.75 45 M46 33.75 C44.9 43.04, 43.36 42.94, 34.75 45 M34.75 45 C29.54 43.57, 20.82 45.46, 11.25 45 M34.75 45 C30.5 45.74, 24.45 45.02, 11.25 45 M11.25 45 C4.79 45.36, 0.07 40.23, 0 33.75 M11.25 45 C3.94 43.76, -0.82 40.62, 0 33.75 M0 33.75 C0.04 28.2, 2.04 20.11, 0 11.25 M0 33.75 C0.26 25.39, -0.45 16.8, 0 11.25 M0 11.25 C0.41 2.12, 5.49 -1.51, 11.25 0 M0 11.25 C0.75 1.55, 4 2.17, 11.25 0" stroke="#1e1e1e" stroke-width="4" fill="none"></path></g><g stroke-linecap="round"><g transform="translate(56 159) rotate(0 68.5 -1.5)"><path d="M0 0 C22.83 -0.5, 114.17 -2.5, 137 -3 M0 0 C22.83 -0.5, 114.17 -2.5, 137 -3" stroke="#1e1e1e" stroke-width="4" fill="none"></path></g></g><mask></mask><g stroke-linecap="round"><g transform="translate(101 156) rotate(0 46 -62.5)"><path d="M0 0 C0 -32.45, 0 -64.91, 0 -122 M0 0 C0 -44.32, 0 -88.63, 0 -122 M0 -122 C33.65 -123.1, 67.31 -124.19, 92 -125 M0 -122 C32.44 -123.06, 64.89 -124.12, 92 -125" stroke="#1e1e1e" stroke-width="4" fill="none"></path></g></g><mask></mask><g stroke-linecap="round"><g transform="translate(101 159) rotate(0 47.5 62)"><path d="M0 0 C0 36.04, 0 72.07, 0 124 M0 0 C0 42.94, 0 85.89, 0 124 M0 124 C22.42 123.53, 44.83 123.06, 95 122 M0 124 C27.04 123.43, 54.09 122.86, 95 122" stroke="#1e1e1e" stroke-width="4" fill="none"></path></g></g><mask></mask></svg>