<svg width="132" height="172" viewBox="0 0 132 172" fill="none" xmlns="http://www.w3.org/2000/svg">
<mask id="path-1-inside-1_120_524" fill="white">
<path fill-rule="evenodd" clip-rule="evenodd" d="M28.8623 0H3.99402C1.78488 0 -0.00598145 1.79086 -0.00598145 4V29H5.22975C5.92137 27.8044 7.21405 27 8.69462 27C10.9038 27 12.6946 28.7909 12.6946 31C12.6946 33.2091 10.9038 35 8.69462 35C7.21405 35 5.92136 34.1956 5.22975 33H-0.00598145V49H5.22975C5.92136 47.8044 7.21405 47 8.69462 47C10.9038 47 12.6946 48.7909 12.6946 51C12.6946 53.2091 10.9038 55 8.69462 55C7.21405 55 5.92136 54.1956 5.22975 53H-0.00598145V69H5.22975C5.92137 67.8044 7.21405 67 8.69462 67C10.9038 67 12.6946 68.7909 12.6946 71C12.6946 73.2091 10.9038 75 8.69462 75C7.21405 75 5.92137 74.1956 5.22975 73H-0.00598145V89H5.22975C5.92137 87.8044 7.21405 87 8.69462 87C10.9038 87 12.6946 88.7909 12.6946 91C12.6946 93.2091 10.9038 95 8.69462 95C7.21405 95 5.92137 94.1956 5.22975 93H-0.00598145V109H5.22975C5.92137 107.804 7.21405 107 8.69462 107C10.9038 107 12.6946 108.791 12.6946 111C12.6946 113.209 10.9038 115 8.69462 115C7.21405 115 5.92137 114.196 5.22975 113H-0.00598145V129H5.22975C5.92137 127.804 7.21405 127 8.69462 127C10.9038 127 12.6946 128.791 12.6946 131C12.6946 133.209 10.9038 135 8.69462 135C7.21405 135 5.92137 134.196 5.22975 133H-0.00598145V168C-0.00598145 170.209 1.78488 172 3.99402 172H28.8623V0ZM30.8623 172H127.826C130.035 172 131.826 170.209 131.826 168V4C131.826 1.79086 130.035 0 127.826 0H30.8623V172Z"/>
</mask>
<path fill-rule="evenodd" clip-rule="evenodd" d="M28.8623 0H3.99402C1.78488 0 -0.00598145 1.79086 -0.00598145 4V29H5.22975C5.92137 27.8044 7.21405 27 8.69462 27C10.9038 27 12.6946 28.7909 12.6946 31C12.6946 33.2091 10.9038 35 8.69462 35C7.21405 35 5.92136 34.1956 5.22975 33H-0.00598145V49H5.22975C5.92136 47.8044 7.21405 47 8.69462 47C10.9038 47 12.6946 48.7909 12.6946 51C12.6946 53.2091 10.9038 55 8.69462 55C7.21405 55 5.92136 54.1956 5.22975 53H-0.00598145V69H5.22975C5.92137 67.8044 7.21405 67 8.69462 67C10.9038 67 12.6946 68.7909 12.6946 71C12.6946 73.2091 10.9038 75 8.69462 75C7.21405 75 5.92137 74.1956 5.22975 73H-0.00598145V89H5.22975C5.92137 87.8044 7.21405 87 8.69462 87C10.9038 87 12.6946 88.7909 12.6946 91C12.6946 93.2091 10.9038 95 8.69462 95C7.21405 95 5.92137 94.1956 5.22975 93H-0.00598145V109H5.22975C5.92137 107.804 7.21405 107 8.69462 107C10.9038 107 12.6946 108.791 12.6946 111C12.6946 113.209 10.9038 115 8.69462 115C7.21405 115 5.92137 114.196 5.22975 113H-0.00598145V129H5.22975C5.92137 127.804 7.21405 127 8.69462 127C10.9038 127 12.6946 128.791 12.6946 131C12.6946 133.209 10.9038 135 8.69462 135C7.21405 135 5.92137 134.196 5.22975 133H-0.00598145V168C-0.00598145 170.209 1.78488 172 3.99402 172H28.8623V0ZM30.8623 172H127.826C130.035 172 131.826 170.209 131.826 168V4C131.826 1.79086 130.035 0 127.826 0H30.8623V172Z" fill="#FB923C"/>
<path d="M28.8623 0H30.8623V-2H28.8623V0ZM-0.00598145 29H-2.00598V31H-0.00598145V29ZM5.22975 29V31H6.38333L6.96096 30.0015L5.22975 29ZM5.22975 33L6.96096 31.9985L6.38333 31H5.22975V33ZM-0.00598145 33V31H-2.00598V33H-0.00598145ZM-0.00598145 49H-2.00598V51H-0.00598145V49ZM5.22975 49V51H6.38333L6.96096 50.0015L5.22975 49ZM5.22975 53L6.96096 51.9985L6.38333 51H5.22975V53ZM-0.00598145 53V51H-2.00598V53H-0.00598145ZM-0.00598145 69H-2.00598V71H-0.00598145V69ZM5.22975 69V71H6.38333L6.96096 70.0015L5.22975 69ZM5.22975 73L6.96096 71.9985L6.38333 71H5.22975V73ZM-0.00598145 73V71H-2.00598V73H-0.00598145ZM-0.00598145 89H-2.00598V91H-0.00598145V89ZM5.22975 89V91H6.38333L6.96096 90.0015L5.22975 89ZM5.22975 93L6.96096 91.9985L6.38333 91H5.22975V93ZM-0.00598145 93V91H-2.00598V93H-0.00598145ZM-0.00598145 109H-2.00598V111H-0.00598145V109ZM5.22975 109V111H6.38333L6.96096 110.001L5.22975 109ZM5.22975 113L6.96096 111.999L6.38333 111H5.22975V113ZM-0.00598145 113V111H-2.00598V113H-0.00598145ZM-0.00598145 129H-2.00598V131H-0.00598145V129ZM5.22975 129V131H6.38333L6.96096 130.001L5.22975 129ZM5.22975 133L6.96096 131.999L6.38333 131H5.22975V133ZM-0.00598145 133V131H-2.00598V133H-0.00598145ZM28.8623 172V174H30.8623V172H28.8623ZM30.8623 172H28.8623V174H30.8623V172ZM30.8623 0V-2H28.8623V0H30.8623ZM3.99402 2H28.8623V-2H3.99402V2ZM1.99402 4C1.99402 2.89543 2.88945 2 3.99402 2V-2C0.680309 -2 -2.00598 0.686295 -2.00598 4H1.99402ZM1.99402 29V4H-2.00598V29H1.99402ZM5.22975 27H-0.00598145V31H5.22975V27ZM8.69462 25C6.47125 25 4.53294 26.2104 3.49853 27.9985L6.96096 30.0015C7.30979 29.3984 7.95685 29 8.69462 29V25ZM14.6946 31C14.6946 27.6863 12.0083 25 8.69462 25V29C9.79919 29 10.6946 29.8954 10.6946 31H14.6946ZM8.69462 37C12.0083 37 14.6946 34.3137 14.6946 31H10.6946C10.6946 32.1046 9.79919 33 8.69462 33V37ZM3.49853 34.0015C4.53294 35.7896 6.47125 37 8.69462 37V33C7.95685 33 7.30979 32.6016 6.96096 31.9985L3.49853 34.0015ZM-0.00598145 35H5.22975V31H-0.00598145V35ZM1.99402 49V33H-2.00598V49H1.99402ZM5.22975 47H-0.00598145V51H5.22975V47ZM8.69462 45C6.47125 45 4.53294 46.2104 3.49853 47.9985L6.96096 50.0015C7.30979 49.3984 7.95685 49 8.69462 49V45ZM14.6946 51C14.6946 47.6863 12.0083 45 8.69462 45V49C9.79919 49 10.6946 49.8954 10.6946 51H14.6946ZM8.69462 57C12.0083 57 14.6946 54.3137 14.6946 51H10.6946C10.6946 52.1046 9.79919 53 8.69462 53V57ZM3.49853 54.0015C4.53294 55.7896 6.47125 57 8.69462 57V53C7.95685 53 7.30979 52.6016 6.96096 51.9985L3.49853 54.0015ZM-0.00598145 55H5.22975V51H-0.00598145V55ZM1.99402 69V53H-2.00598V69H1.99402ZM5.22975 67H-0.00598145V71H5.22975V67ZM8.69462 65C6.47125 65 4.53294 66.2104 3.49854 67.9985L6.96096 70.0015C7.30979 69.3984 7.95685 69 8.69462 69V65ZM14.6946 71C14.6946 67.6863 12.0083 65 8.69462 65V69C9.79919 69 10.6946 69.8954 10.6946 71H14.6946ZM8.69462 77C12.0083 77 14.6946 74.3137 14.6946 71H10.6946C10.6946 72.1046 9.79919 73 8.69462 73V77ZM3.49854 74.0015C4.53294 75.7896 6.47125 77 8.69462 77V73C7.95685 73 7.30979 72.6016 6.96096 71.9985L3.49854 74.0015ZM-0.00598145 75H5.22975V71H-0.00598145V75ZM1.99402 89V73H-2.00598V89H1.99402ZM5.22975 87H-0.00598145V91H5.22975V87ZM8.69462 85C6.47125 85 4.53294 86.2104 3.49854 87.9985L6.96096 90.0015C7.30979 89.3984 7.95685 89 8.69462 89V85ZM14.6946 91C14.6946 87.6863 12.0083 85 8.69462 85V89C9.79919 89 10.6946 89.8954 10.6946 91H14.6946ZM8.69462 97C12.0083 97 14.6946 94.3137 14.6946 91H10.6946C10.6946 92.1046 9.79919 93 8.69462 93V97ZM3.49854 94.0015C4.53294 95.7896 6.47125 97 8.69462 97V93C7.95685 93 7.30979 92.6016 6.96096 91.9985L3.49854 94.0015ZM-0.00598145 95H5.22975V91H-0.00598145V95ZM1.99402 109V93H-2.00598V109H1.99402ZM5.22975 107H-0.00598145V111H5.22975V107ZM8.69462 105C6.47125 105 4.53294 106.21 3.49854 107.999L6.96096 110.001C7.30979 109.398 7.95685 109 8.69462 109V105ZM14.6946 111C14.6946 107.686 12.0083 105 8.69462 105V109C9.79919 109 10.6946 109.895 10.6946 111H14.6946ZM8.69462 117C12.0083 117 14.6946 114.314 14.6946 111H10.6946C10.6946 112.105 9.79919 113 8.69462 113V117ZM3.49854 114.001C4.53294 115.79 6.47125 117 8.69462 117V113C7.95685 113 7.30979 112.602 6.96096 111.999L3.49854 114.001ZM-0.00598145 115H5.22975V111H-0.00598145V115ZM1.99402 129V113H-2.00598V129H1.99402ZM5.22975 127H-0.00598145V131H5.22975V127ZM8.69462 125C6.47125 125 4.53294 126.21 3.49854 127.999L6.96096 130.001C7.30979 129.398 7.95685 129 8.69462 129V125ZM14.6946 131C14.6946 127.686 12.0083 125 8.69462 125V129C9.79919 129 10.6946 129.895 10.6946 131H14.6946ZM8.69462 137C12.0083 137 14.6946 134.314 14.6946 131H10.6946C10.6946 132.105 9.79919 133 8.69462 133V137ZM3.49854 134.001C4.53294 135.79 6.47125 137 8.69462 137V133C7.95685 133 7.30979 132.602 6.96096 131.999L3.49854 134.001ZM-0.00598145 135H5.22975V131H-0.00598145V135ZM1.99402 168V133H-2.00598V168H1.99402ZM3.99402 170C2.88945 170 1.99402 169.105 1.99402 168H-2.00598C-2.00598 171.314 0.680309 174 3.99402 174V170ZM28.8623 170H3.99402V174H28.8623V170ZM30.8623 172V0H26.8623V172H30.8623ZM127.826 170H30.8623V174H127.826V170ZM129.826 168C129.826 169.105 128.931 170 127.826 170V174C131.14 174 133.826 171.314 133.826 168H129.826ZM129.826 4V168H133.826V4H129.826ZM127.826 2C128.931 2 129.826 2.89543 129.826 4H133.826C133.826 0.686291 131.14 -2 127.826 -2V2ZM30.8623 2H127.826V-2H30.8623V2ZM28.8623 0V172H32.8623V0H28.8623Z" fill="#9A3412" mask="url(#path-1-inside-1_120_524)"/>
<path d="M46 31C46 28.7909 47.7909 27 50 27H106C108.209 27 110 28.7909 110 31V43H46V31Z" fill="#AF0D12"/>
<rect x="46" y="43" width="64" height="16" fill="#FABE00"/>
<path d="M46 59H110V71C110 73.2091 108.209 75 106 75H50C47.7909 75 46 73.2091 46 71V59Z" fill="#AF0D12"/>
<path d="M43.2515 102.994H93.2515" stroke="white" stroke-width="5" stroke-linecap="round"/>
<path d="M43.2515 114.994H118.251" stroke="white" stroke-width="5" stroke-linecap="round"/>
<path d="M43.2515 126.994H68.2515" stroke="white" stroke-width="5" stroke-linecap="round"/>
</svg>
