<?xml version="1.0" encoding="utf-8"?>
<!-- Svg Vector Icons : http://www.onlinewebfonts.com/icon -->
<!DOCTYPE svg PUBLIC "-//W3C//DTD SVG 1.1//EN" "http://www.w3.org/Graphics/SVG/1.1/DTD/svg11.dtd">
<svg version="1.1" xmlns="http://www.w3.org/2000/svg" xmlns:xlink="http://www.w3.org/1999/xlink" x="0px" y="0px" viewBox="0 0 256 256" enable-background="new 0 0 256 256" xml:space="preserve">
<metadata> Svg Vector Icons : http://www.onlinewebfonts.com/icon </metadata>
<g><g><g><path fill="#000000" d="M83.3,10.3c-1.3,0.2-29.9,28.4-31.6,31c-0.9,1.5-0.9,2.6-0.8,58.6l0.1,57.1l1.1,2.3c1.7,3.8,4,6.2,7.5,7.9c3.2,1.6,3.2,1.6,11.7,1.8l8.5,0.2l0.2,37l0.2,37.1l1.3,1.3c1.8,1.8,4.5,1.8,6.3,0l1.3-1.3l0.1-37.2l0.1-37.2h16.9h16.9v36.9v36.9l1.4,1.5c1.1,1.3,1.7,1.6,3.3,1.6c1.6,0,2.2-0.3,3.3-1.6l1.4-1.5v-36.9V169h16.9h16.9l0.1,37.1l0.1,37.1l1.1,1.2c1.9,2,4.3,2,6.9,0c0.9-0.8,0.9-1.5,1.2-38l0.2-37.3l8.5-0.2c8.5-0.2,8.5-0.2,11.7-1.8c3.5-1.7,5.7-4.1,7.5-7.9l1.1-2.3l0.1-55.8c0.1-30.7,0-56.7-0.1-57.9c-0.3-2-0.9-2.7-15-16.8c-8.1-8.1-15.5-15.2-16.4-15.7c-1.7-0.8-3.2-0.9-45.4-0.8C104.1,10.1,84,10.2,83.3,10.3z M182.4,32.6l12.8,12.8v16.1v16.1H128H60.7V61.6V45.5l12.8-12.8l12.8-12.8H128h41.6L182.4,32.6z M195.3,121c0,37,0.1,35.6-2.7,37.5c-1.3,0.8-3.2,0.9-64.6,0.9c-61.4,0-63.3,0-64.6-0.9c-2.8-1.9-2.7-0.5-2.7-37.5V87.1H128h67.3V121z"/><path fill="#000000" d="M125.6,34.5c-7.8,1.2-13.1,8.9-11.7,16.8c1.3,7.1,6.8,11.6,14.1,11.6c7.2,0,12.8-4.6,14.1-11.6C143.9,41.4,135.5,32.9,125.6,34.5z"/></g></g></g>
</svg>