<svg width="133" height="172" viewBox="0 0 133 172" fill="none" xmlns="http://www.w3.org/2000/svg">
<mask id="path-1-inside-1_119_144" fill="white">
<path fill-rule="evenodd" clip-rule="evenodd" d="M29.1976 0H4.32935C2.12021 0 0.329346 1.79086 0.329346 4V29H5.56507C6.25669 27.8044 7.54938 27 9.02994 27C11.2391 27 13.0299 28.7909 13.0299 31C13.0299 33.2091 11.2391 35 9.02994 35C7.54938 35 6.25669 34.1956 5.56507 33H0.329346V49H5.56507C6.25669 47.8044 7.54938 47 9.02994 47C11.2391 47 13.0299 48.7909 13.0299 51C13.0299 53.2091 11.2391 55 9.02994 55C7.54938 55 6.25669 54.1956 5.56507 53H0.329346V69H5.56507C6.25669 67.8044 7.54938 67 9.02994 67C11.2391 67 13.0299 68.7909 13.0299 71C13.0299 73.2091 11.2391 75 9.02994 75C7.54938 75 6.25669 74.1956 5.56507 73H0.329346V89H5.56507C6.25669 87.8044 7.54938 87 9.02994 87C11.2391 87 13.0299 88.7909 13.0299 91C13.0299 93.2091 11.2391 95 9.02994 95C7.54938 95 6.25669 94.1956 5.56507 93H0.329346V109H5.56507C6.25669 107.804 7.54938 107 9.02994 107C11.2391 107 13.0299 108.791 13.0299 111C13.0299 113.209 11.2391 115 9.02994 115C7.54938 115 6.25669 114.196 5.56507 113H0.329346V129H5.56507C6.25669 127.804 7.54938 127 9.02994 127C11.2391 127 13.0299 128.791 13.0299 131C13.0299 133.209 11.2391 135 9.02994 135C7.54938 135 6.25669 134.196 5.56507 133H0.329346V168C0.329346 170.209 2.12021 172 4.32935 172H29.1976V0ZM31.1976 172H128.162C130.371 172 132.162 170.209 132.162 168V4C132.162 1.79086 130.371 0 128.162 0H31.1976V172Z"/>
</mask>
<path fill-rule="evenodd" clip-rule="evenodd" d="M29.1976 0H4.32935C2.12021 0 0.329346 1.79086 0.329346 4V29H5.56507C6.25669 27.8044 7.54938 27 9.02994 27C11.2391 27 13.0299 28.7909 13.0299 31C13.0299 33.2091 11.2391 35 9.02994 35C7.54938 35 6.25669 34.1956 5.56507 33H0.329346V49H5.56507C6.25669 47.8044 7.54938 47 9.02994 47C11.2391 47 13.0299 48.7909 13.0299 51C13.0299 53.2091 11.2391 55 9.02994 55C7.54938 55 6.25669 54.1956 5.56507 53H0.329346V69H5.56507C6.25669 67.8044 7.54938 67 9.02994 67C11.2391 67 13.0299 68.7909 13.0299 71C13.0299 73.2091 11.2391 75 9.02994 75C7.54938 75 6.25669 74.1956 5.56507 73H0.329346V89H5.56507C6.25669 87.8044 7.54938 87 9.02994 87C11.2391 87 13.0299 88.7909 13.0299 91C13.0299 93.2091 11.2391 95 9.02994 95C7.54938 95 6.25669 94.1956 5.56507 93H0.329346V109H5.56507C6.25669 107.804 7.54938 107 9.02994 107C11.2391 107 13.0299 108.791 13.0299 111C13.0299 113.209 11.2391 115 9.02994 115C7.54938 115 6.25669 114.196 5.56507 113H0.329346V129H5.56507C6.25669 127.804 7.54938 127 9.02994 127C11.2391 127 13.0299 128.791 13.0299 131C13.0299 133.209 11.2391 135 9.02994 135C7.54938 135 6.25669 134.196 5.56507 133H0.329346V168C0.329346 170.209 2.12021 172 4.32935 172H29.1976V0ZM31.1976 172H128.162C130.371 172 132.162 170.209 132.162 168V4C132.162 1.79086 130.371 0 128.162 0H31.1976V172Z" fill="#818CF8"/>
<path d="M29.1976 0H31.1976V-2H29.1976V0ZM0.329346 29H-1.67065V31H0.329346V29ZM5.56507 29V31H6.71866L7.29629 30.0015L5.56507 29ZM5.56507 33L7.29628 31.9985L6.71866 31H5.56507V33ZM0.329346 33V31H-1.67065V33H0.329346ZM0.329346 49H-1.67065V51H0.329346V49ZM5.56507 49V51H6.71866L7.29628 50.0015L5.56507 49ZM5.56507 53L7.29628 51.9985L6.71866 51H5.56507V53ZM0.329346 53V51H-1.67065V53H0.329346ZM0.329346 69H-1.67065V71H0.329346V69ZM5.56507 69V71H6.71866L7.29629 70.0015L5.56507 69ZM5.56507 73L7.29629 71.9985L6.71866 71H5.56507V73ZM0.329346 73V71H-1.67065V73H0.329346ZM0.329346 89H-1.67065V91H0.329346V89ZM5.56507 89V91H6.71866L7.29629 90.0015L5.56507 89ZM5.56507 93L7.29629 91.9985L6.71866 91H5.56507V93ZM0.329346 93V91H-1.67065V93H0.329346ZM0.329346 109H-1.67065V111H0.329346V109ZM5.56507 109V111H6.71866L7.29629 110.001L5.56507 109ZM5.56507 113L7.29629 111.999L6.71866 111H5.56507V113ZM0.329346 113V111H-1.67065V113H0.329346ZM0.329346 129H-1.67065V131H0.329346V129ZM5.56507 129V131H6.71866L7.29629 130.001L5.56507 129ZM5.56507 133L7.29629 131.999L6.71866 131H5.56507V133ZM0.329346 133V131H-1.67065V133H0.329346ZM29.1976 172V174H31.1976V172H29.1976ZM31.1976 172H29.1976V174H31.1976V172ZM31.1976 0V-2H29.1976V0H31.1976ZM4.32935 2H29.1976V-2H4.32935V2ZM2.32935 4C2.32935 2.89543 3.22478 2 4.32935 2V-2C1.01564 -2 -1.67065 0.686295 -1.67065 4H2.32935ZM2.32935 29V4H-1.67065V29H2.32935ZM5.56507 27H0.329346V31H5.56507V27ZM9.02994 25C6.80658 25 4.86827 26.2104 3.83386 27.9985L7.29629 30.0015C7.64511 29.3984 8.29218 29 9.02994 29V25ZM15.0299 31C15.0299 27.6863 12.3437 25 9.02994 25V29C10.1345 29 11.0299 29.8954 11.0299 31H15.0299ZM9.02994 37C12.3437 37 15.0299 34.3137 15.0299 31H11.0299C11.0299 32.1046 10.1345 33 9.02994 33V37ZM3.83386 34.0015C4.86827 35.7896 6.80658 37 9.02994 37V33C8.29218 33 7.64511 32.6016 7.29628 31.9985L3.83386 34.0015ZM0.329346 35H5.56507V31H0.329346V35ZM2.32935 49V33H-1.67065V49H2.32935ZM5.56507 47H0.329346V51H5.56507V47ZM9.02994 45C6.80658 45 4.86827 46.2104 3.83386 47.9985L7.29628 50.0015C7.64511 49.3984 8.29218 49 9.02994 49V45ZM15.0299 51C15.0299 47.6863 12.3437 45 9.02994 45V49C10.1345 49 11.0299 49.8954 11.0299 51H15.0299ZM9.02994 57C12.3437 57 15.0299 54.3137 15.0299 51H11.0299C11.0299 52.1046 10.1345 53 9.02994 53V57ZM3.83386 54.0015C4.86827 55.7896 6.80658 57 9.02994 57V53C8.29218 53 7.64511 52.6016 7.29628 51.9985L3.83386 54.0015ZM0.329346 55H5.56507V51H0.329346V55ZM2.32935 69V53H-1.67065V69H2.32935ZM5.56507 67H0.329346V71H5.56507V67ZM9.02994 65C6.80658 65 4.86827 66.2104 3.83386 67.9985L7.29629 70.0015C7.64511 69.3984 8.29218 69 9.02994 69V65ZM15.0299 71C15.0299 67.6863 12.3437 65 9.02994 65V69C10.1345 69 11.0299 69.8954 11.0299 71H15.0299ZM9.02994 77C12.3437 77 15.0299 74.3137 15.0299 71H11.0299C11.0299 72.1046 10.1345 73 9.02994 73V77ZM3.83386 74.0015C4.86827 75.7896 6.80658 77 9.02994 77V73C8.29218 73 7.64511 72.6016 7.29629 71.9985L3.83386 74.0015ZM0.329346 75H5.56507V71H0.329346V75ZM2.32935 89V73H-1.67065V89H2.32935ZM5.56507 87H0.329346V91H5.56507V87ZM9.02994 85C6.80658 85 4.86827 86.2104 3.83386 87.9985L7.29629 90.0015C7.64511 89.3984 8.29218 89 9.02994 89V85ZM15.0299 91C15.0299 87.6863 12.3437 85 9.02994 85V89C10.1345 89 11.0299 89.8954 11.0299 91H15.0299ZM9.02994 97C12.3437 97 15.0299 94.3137 15.0299 91H11.0299C11.0299 92.1046 10.1345 93 9.02994 93V97ZM3.83386 94.0015C4.86827 95.7896 6.80658 97 9.02994 97V93C8.29218 93 7.64511 92.6016 7.29629 91.9985L3.83386 94.0015ZM0.329346 95H5.56507V91H0.329346V95ZM2.32935 109V93H-1.67065V109H2.32935ZM5.56507 107H0.329346V111H5.56507V107ZM9.02994 105C6.80658 105 4.86827 106.21 3.83386 107.999L7.29629 110.001C7.64511 109.398 8.29218 109 9.02994 109V105ZM15.0299 111C15.0299 107.686 12.3437 105 9.02994 105V109C10.1345 109 11.0299 109.895 11.0299 111H15.0299ZM9.02994 117C12.3437 117 15.0299 114.314 15.0299 111H11.0299C11.0299 112.105 10.1345 113 9.02994 113V117ZM3.83386 114.001C4.86827 115.79 6.80658 117 9.02994 117V113C8.29218 113 7.64511 112.602 7.29629 111.999L3.83386 114.001ZM0.329346 115H5.56507V111H0.329346V115ZM2.32935 129V113H-1.67065V129H2.32935ZM5.56507 127H0.329346V131H5.56507V127ZM9.02994 125C6.80658 125 4.86827 126.21 3.83386 127.999L7.29629 130.001C7.64511 129.398 8.29218 129 9.02994 129V125ZM15.0299 131C15.0299 127.686 12.3437 125 9.02994 125V129C10.1345 129 11.0299 129.895 11.0299 131H15.0299ZM9.02994 137C12.3437 137 15.0299 134.314 15.0299 131H11.0299C11.0299 132.105 10.1345 133 9.02994 133V137ZM3.83386 134.001C4.86827 135.79 6.80658 137 9.02994 137V133C8.29218 133 7.64511 132.602 7.29629 131.999L3.83386 134.001ZM0.329346 135H5.56507V131H0.329346V135ZM2.32935 168V133H-1.67065V168H2.32935ZM4.32935 170C3.22478 170 2.32935 169.105 2.32935 168H-1.67065C-1.67065 171.314 1.01564 174 4.32935 174V170ZM29.1976 170H4.32935V174H29.1976V170ZM31.1976 172V0H27.1976V172H31.1976ZM128.162 170H31.1976V174H128.162V170ZM130.162 168C130.162 169.105 129.266 170 128.162 170V174C131.475 174 134.162 171.314 134.162 168H130.162ZM130.162 4V168H134.162V4H130.162ZM128.162 2C129.266 2 130.162 2.89543 130.162 4H134.162C134.162 0.686291 131.475 -2 128.162 -2V2ZM31.1976 2H128.162V-2H31.1976V2ZM29.1976 0V172H33.1976V0H29.1976Z" fill="#1E40AF" mask="url(#path-1-inside-1_119_144)"/>
<g clip-path="url(#clip0_119_144)">
<mask id="mask0_119_144" style="mask-type:luminance" maskUnits="userSpaceOnUse" x="53" y="30" width="17" height="21">
<path d="M53.9058 36.0232C53.9058 36.0232 57.0078 32.6176 59.1562 31.2061C59.8407 30.7568 64.9318 28.0996 68.2011 37.2448C69.9897 42.252 70.0195 45.9819 65.9541 47.5726C63.5196 48.5254 64.3897 50.309 64.3897 50.309" fill="white"/>
</mask>
<g mask="url(#mask0_119_144)">
<path d="M53.9058 36.0232C53.9058 36.0232 57.0078 32.6176 59.1562 31.2061C59.8407 30.7568 64.9318 28.0996 68.2011 37.2448C69.9897 42.252 70.0195 45.9819 65.9541 47.5726C63.5196 48.5254 64.3897 50.309 64.3897 50.309" fill="url(#paint0_linear_119_144)"/>
</g>
<path d="M58.8591 30.7913C56.6797 32.2229 53.6371 35.552 53.5088 35.6927C53.3186 35.902 53.3409 36.2203 53.5599 36.4024C53.7784 36.5843 54.1105 36.5633 54.301 36.3537C54.3319 36.3198 57.3853 32.9789 59.4539 31.6204C59.5159 31.579 61.025 30.6106 62.8629 31.1933C64.7957 31.8064 66.47 33.9555 67.7036 37.4074C69.6674 42.9036 69.085 45.8053 65.7556 47.1069C64.7951 47.4837 64.1627 48.0281 63.8767 48.7285C63.4992 49.6521 63.8968 50.4863 63.914 50.522C64.0354 50.7723 64.344 50.8785 64.606 50.7638C64.8687 50.6504 64.9853 50.3533 64.8682 50.1011C64.8662 50.0963 64.6417 49.6015 64.8606 49.0831C65.0405 48.6552 65.4753 48.3028 66.1532 48.0383C71.1759 46.0723 70.1512 41.1503 68.6976 37.0815C67.3341 33.2673 65.4826 30.9657 63.194 30.2391C60.9062 29.5133 59.0613 30.659 58.8591 30.7913Z" fill="#172554"/>
<mask id="mask1_119_144" style="mask-type:luminance" maskUnits="userSpaceOnUse" x="95" y="37" width="9" height="3">
<path d="M95.6205 37.9952H102.135C102.682 37.9952 103.125 38.3549 103.125 38.7972C103.125 39.2397 102.682 39.5987 102.135 39.5987H97.0219L95.6205 37.9952Z" fill="white"/>
</mask>
<g mask="url(#mask1_119_144)">
<path d="M95.6205 37.9952H102.135C102.682 37.9952 103.125 38.3549 103.125 38.7972C103.125 39.2397 102.682 39.5987 102.135 39.5987H97.0219L95.6205 37.9952Z" fill="url(#paint1_linear_119_144)"/>
</g>
<path d="M102.135 38.4978C102.409 38.4978 102.599 38.6558 102.599 38.7972C102.599 38.9384 102.409 39.0964 102.135 39.0964C102.135 39.0964 97.713 39.0964 97.2673 39.0964C97.1627 38.9774 97.006 38.7965 96.7447 38.4978C98.2843 38.4978 102.135 38.4978 102.135 38.4978ZM94.4966 37.4927L96.7762 40.1017H102.135C102.971 40.1017 103.65 39.5166 103.65 38.7972C103.65 38.0777 102.971 37.4927 102.135 37.4927H94.4966Z" fill="#172554"/>
<path d="M104.152 36.1311C105.047 35.7079 106.094 35.8114 106.492 36.3621C106.888 36.9143 106.484 37.7028 105.589 38.1277C104.694 38.5505 102.351 39.062 101.953 38.5091C101.555 37.9584 103.257 36.5541 104.152 36.1311Z" fill="#8B9DD7"/>
<path d="M104.384 36.5816C105.079 36.2535 105.841 36.346 106.059 36.6479C106.12 36.7324 106.134 36.8295 106.102 36.9456C106.046 37.1552 105.82 37.4573 105.355 37.6778C104.491 38.0858 102.957 38.3253 102.483 38.2097C102.658 37.8201 103.618 36.9444 104.384 36.5816ZM103.919 35.6809C103.17 36.0343 101.646 37.161 101.406 38.0516L101.521 38.7943C102.241 39.797 105.144 38.8987 105.821 38.578C106.495 38.2588 106.968 37.7558 107.12 37.1979C107.228 36.8001 107.158 36.4024 106.924 36.0774C106.376 35.3171 105.056 35.1432 103.919 35.6809Z" fill="#172554"/>
<path d="M105.743 39.3848C106.703 39.7028 107.238 40.4392 106.942 41.0304C106.643 41.6223 105.624 41.842 104.664 41.5231C103.706 41.2058 101.779 40.0095 102.076 39.419C102.375 38.8259 104.785 39.0668 105.743 39.3848Z" fill="#8B9DD7"/>
<path d="M105.571 39.8593H105.571C106.087 40.0311 106.37 40.3166 106.461 40.5271C106.531 40.688 106.484 40.7825 106.468 40.8133C106.31 41.127 105.578 41.2941 104.837 41.0482C103.99 40.768 102.851 39.9786 102.637 39.6153C103.034 39.4833 104.644 39.5517 105.571 39.8593ZM101.603 39.2009L101.604 39.9301C101.974 40.7825 103.681 41.7295 104.493 41.9985C105.714 42.4045 106.998 42.0752 107.415 41.2501C107.503 41.072 107.548 40.881 107.548 40.6873C107.548 40.5047 107.509 40.3202 107.43 40.1395C107.195 39.5987 106.643 39.1513 105.915 38.9104C105.188 38.6688 102.152 38.1104 101.603 39.2009Z" fill="#172554"/>
<path d="M105.883 37.5628C107.308 37.5536 108.469 38.0629 108.474 38.7016C108.481 39.3399 107.333 39.8646 105.907 39.8738C104.484 39.8834 101.26 39.3889 101.253 38.7509C101.247 38.1116 104.46 37.5734 105.883 37.5628Z" fill="#8B9DD7"/>
<path d="M107.949 38.7064C107.949 38.7307 107.926 38.7782 107.862 38.8403C107.605 39.0916 106.881 39.3648 105.904 39.3711C104.682 39.3792 102.749 39.0504 102.005 38.7452C102.744 38.4286 104.667 38.0738 105.887 38.0656H105.887C107.236 38.0567 107.948 38.5375 107.949 38.7064ZM105.88 37.0598H105.879C104.844 37.0673 101.77 37.4289 100.981 38.1954L100.728 38.756C100.743 40.2337 105.859 40.3768 105.911 40.3768C107.058 40.3689 108.093 40.0506 108.612 39.5455C108.869 39.2952 109.003 39.0022 109 38.6965C108.992 37.7375 107.68 37.0487 105.88 37.0598Z" fill="#172554"/>
<mask id="mask2_119_144" style="mask-type:luminance" maskUnits="userSpaceOnUse" x="58" y="53" width="15" height="19">
<path d="M72.9341 53.9433V66.8514C72.9341 70.0342 69.7499 71.1749 65.823 71.1749C61.8953 71.1749 58.7128 70.0342 58.7128 66.8514V53.7911" fill="white"/>
</mask>
<g mask="url(#mask2_119_144)">
<path d="M72.9341 53.9433V66.8514C72.9341 70.0342 69.7499 71.1749 65.823 71.1749C61.8953 71.1749 58.7128 70.0342 58.7128 66.8514V53.7911" fill="url(#paint2_linear_119_144)"/>
</g>
<path d="M58.1874 53.791V66.8514C58.1874 69.9641 60.8983 71.6777 65.8229 71.6777C70.7474 71.6777 73.4594 69.9641 73.4594 66.8514V53.9433C73.4594 53.6655 73.224 53.4403 72.934 53.4403C72.6438 53.4403 72.4087 53.6655 72.4087 53.9433V66.8514C72.4087 70.0096 68.8279 70.6721 65.8229 70.6721C62.8191 70.6721 59.2382 70.0096 59.2382 66.8514V53.791C59.2382 53.5138 59.0027 53.2885 58.7127 53.2885C58.4228 53.2885 58.1874 53.5138 58.1874 53.791Z" fill="#172554"/>
<path d="M61.829 66.836C61.829 68.1236 61.0765 69.1703 60.1478 69.1703C59.2189 69.1703 58.4662 68.1236 58.4662 66.836C58.4662 65.5459 59.2189 62.6334 60.1478 62.6334C61.0765 62.6334 61.829 65.5459 61.829 66.836Z" fill="#8B9DD7"/>
<path d="M58.6415 66.836C58.6415 65.4332 59.4391 62.8008 60.1478 62.8008C60.8562 62.8008 61.654 65.4332 61.654 66.836C61.654 68.0313 60.9787 69.0032 60.1478 69.0032C59.3174 69.0032 58.6415 68.0313 58.6415 66.836ZM58.2909 66.836C58.2909 68.2156 59.1236 69.3385 60.1478 69.3385C61.1716 69.3385 62.0039 68.2156 62.0039 66.836C62.0039 65.5758 61.2644 62.4653 60.1478 62.4653C59.0314 62.4653 58.2909 65.5758 58.2909 66.836Z" fill="#172554"/>
<path d="M58.9192 67.0687C58.9192 65.8282 59.8292 63.5951 60.4935 63.5951C60.5572 63.5951 60.6195 63.6266 60.6796 63.6746C60.5135 63.2814 60.3233 63.0212 60.1218 63.0212C59.457 63.0212 58.9192 65.8287 58.9192 67.0687Z" fill="#A6BDE6"/>
<path d="M62.6221 68.0761C62.6221 69.0711 62.0238 69.8779 61.2852 69.8779C60.5459 69.8779 59.9468 69.0711 59.9468 68.0761C59.9468 67.0783 60.5459 64.8312 61.2852 64.8312C62.0238 64.8312 62.6221 67.0783 62.6221 68.0761Z" fill="#8B9DD7"/>
<path d="M60.1218 68.0762C60.1218 67.0333 60.7501 64.9991 61.2851 64.9991C61.8202 64.9991 62.4467 67.0333 62.4467 68.0762C62.4467 68.9769 61.9253 69.7102 61.2851 69.7102C60.6433 69.7102 60.1218 68.9769 60.1218 68.0762ZM59.7716 68.0762C59.7716 69.1617 60.4506 70.0455 61.2851 70.0455C62.1184 70.0455 62.7972 69.1617 62.7972 68.0762C62.7972 67.2267 62.2606 64.6635 61.2851 64.6635C60.3081 64.6635 59.7716 67.2267 59.7716 68.0762Z" fill="#172554"/>
<path d="M60.5092 67.4835C60.442 66.7745 61.069 65.5977 61.5575 65.5117C61.6032 65.5057 61.6503 65.5165 61.6971 65.536C61.5539 65.3322 61.3919 65.1699 61.2531 65.2335C60.7695 65.4626 60.442 66.7769 60.5092 67.4835Z" fill="#A6BDE6"/>
<mask id="mask3_119_144" style="mask-type:luminance" maskUnits="userSpaceOnUse" x="80" y="53" width="15" height="19">
<path d="M94.6885 54.1009V67.0087C94.6885 70.192 91.5046 71.3322 87.5775 71.3322C83.6501 71.3322 80.4662 70.192 80.4662 67.0087V53.9486" fill="white"/>
</mask>
<g mask="url(#mask3_119_144)">
<path d="M94.6885 54.1009V67.0087C94.6885 70.192 91.5046 71.3322 87.5775 71.3322C83.6501 71.3322 80.4662 70.192 80.4662 67.0087V53.9486" fill="url(#paint3_linear_119_144)"/>
</g>
<path d="M79.9407 53.9486V67.0087C79.9407 70.1207 82.6529 71.8349 87.5775 71.8349C89.7941 71.8349 91.5714 71.4878 92.8609 70.8036C94.4 69.9865 95.2139 68.6745 95.2139 67.0087V54.1008C95.2139 53.8233 94.9786 53.5983 94.6886 53.5983C94.3986 53.5983 94.1637 53.8233 94.1637 54.1008V67.0087C94.1637 68.3238 93.5703 69.2773 92.3506 69.925C91.2348 70.5165 89.5847 70.8294 87.5775 70.8294C84.5731 70.8294 80.9921 70.1659 80.9921 67.0087V53.9486C80.9921 53.6706 80.7563 53.4456 80.4663 53.4456C80.1763 53.4456 79.9407 53.6706 79.9407 53.9486Z" fill="#172554"/>
<path d="M83.5834 66.993C83.5834 68.2807 82.8312 69.3291 81.9026 69.3291C80.9724 69.3291 80.2205 68.2807 80.2205 66.993C80.2205 65.7037 80.9724 62.791 81.9026 62.791C82.8312 62.791 83.5834 65.7037 83.5834 66.993Z" fill="#7483CA"/>
<path d="M80.395 66.993C80.395 66.3347 80.5944 65.2932 80.8793 64.4611C81.1963 63.5344 81.5885 62.9584 81.9026 62.9584C82.6106 62.9584 83.4084 65.5905 83.4084 66.993C83.4084 68.1889 82.733 69.1612 81.9026 69.1612C81.0712 69.1612 80.395 68.1889 80.395 66.993ZM80.5463 64.3568C80.251 65.2185 80.0448 66.3031 80.0448 66.993C80.0448 68.3732 80.8781 69.4965 81.9026 69.4965C82.9261 69.4965 83.7584 68.3732 83.7584 66.993C83.7584 65.7329 83.0189 62.6235 81.9026 62.6235C81.2716 62.6235 80.8169 63.5655 80.5463 64.3568Z" fill="#172554"/>
<path d="M80.6743 67.2275C80.6743 65.9866 81.5837 63.7519 82.2479 63.7519C82.3118 63.7519 82.374 63.7845 82.4342 63.8317C82.2676 63.4392 82.0779 63.1786 81.8766 63.1786C81.2113 63.1786 80.6743 65.9866 80.6743 67.2275Z" fill="#839AD6"/>
<path d="M84.3769 68.233C84.3769 69.2293 83.7789 70.0342 83.0396 70.0342C82.301 70.0342 81.702 69.2293 81.702 68.233C81.702 67.2354 82.301 64.9885 83.0396 64.9885C83.7789 64.9885 84.3769 67.2354 84.3769 68.233Z" fill="#7483CA"/>
<path d="M81.8773 68.233C81.8773 67.1901 82.5044 65.1564 83.0395 65.1564C83.5738 65.1564 84.2014 67.1901 84.2014 68.233C84.2014 69.1339 83.68 69.8675 83.0395 69.8675C82.3983 69.8675 81.8773 69.1339 81.8773 68.233ZM81.5271 68.233C81.5271 69.3197 82.2055 70.2023 83.0395 70.2023C83.8736 70.2023 84.5519 69.3197 84.5519 68.233C84.5519 67.3838 84.0152 64.821 83.0395 64.821C82.0631 64.821 81.5271 67.3838 81.5271 68.233Z" fill="#172554"/>
<path d="M82.2642 67.6408C82.196 66.9326 82.8233 65.756 83.312 65.6695C83.3582 65.6632 83.4053 65.6736 83.4514 65.6934C83.3084 65.4895 83.1464 65.3269 83.0074 65.3908C82.5236 65.6199 82.196 66.934 82.2642 67.6408Z" fill="#839AD6"/>
<mask id="mask4_119_144" style="mask-type:luminance" maskUnits="userSpaceOnUse" x="64" y="36" width="5" height="14">
<path d="M66.9515 36.314C69.721 40.7803 69.4259 44.5534 65.7358 46.5312C63.5264 47.7159 64.7427 49.2784 64.7427 49.2784" fill="white"/>
</mask>
<g mask="url(#mask4_119_144)">
<path d="M66.9515 36.314C69.721 40.7803 69.4259 44.5534 65.7358 46.5312C63.5264 47.7159 64.7427 49.2784 64.7427 49.2784" fill="url(#paint4_linear_119_144)"/>
</g>
<path d="M66.6836 35.8813C66.4337 36.0232 66.3508 36.3318 66.4995 36.5705C68.0412 39.0554 68.5929 41.3059 68.0959 43.0773C67.7425 44.3365 66.8611 45.351 65.4794 46.0927C64.606 46.5605 64.085 47.1507 63.9301 47.846C63.7193 48.7908 64.297 49.547 64.3217 49.5786C64.494 49.8 64.8192 49.8448 65.0523 49.6822C65.2848 49.5193 65.3357 49.2054 65.1671 48.9814C65.1645 48.977 64.8443 48.5422 64.9598 48.0464C65.0523 47.6499 65.3999 47.2878 65.9925 46.9698C67.6318 46.0905 68.6813 44.8694 69.111 43.3377C69.6829 41.2985 69.0932 38.7808 67.4032 36.0571C67.2554 35.8182 66.9323 35.7399 66.6836 35.8813Z" fill="#080604"/>
<mask id="mask5_119_144" style="mask-type:luminance" maskUnits="userSpaceOnUse" x="45" y="33" width="56" height="39">
<path d="M83.1299 33.1476C83.1299 33.1476 78.5317 33.0938 61.7312 33.646C44.9316 34.1979 45.5516 40.173 45.5255 48.754V69.3937C45.5255 71.1394 47.0506 71.8436 48.9325 71.8436C50.814 71.8436 52.3414 71.1394 52.3414 69.3937C52.3414 69.3937 52.7753 63.4961 53.1498 59.9086C53.9878 46.8754 69.8497 62.0516 81.3804 61.3434C91.8585 60.6992 100.11 57.1119 100.11 48.5866C100.11 40.0593 94.7024 33.1476 83.1299 33.1476Z" fill="white"/>
</mask>
<g mask="url(#mask5_119_144)">
<path d="M83.1299 33.1476C83.1299 33.1476 78.5317 33.0938 61.7312 33.646C44.9316 34.1979 45.5516 40.173 45.5255 48.754V69.3937C45.5255 71.1394 47.0506 71.8436 48.9325 71.8436C50.814 71.8436 52.3414 71.1394 52.3414 69.3937C52.3414 69.3937 52.7753 63.4961 53.1498 59.9086C53.9878 46.8754 69.8497 62.0516 81.3804 61.3434C91.8585 60.6992 100.11 57.1119 100.11 48.5866C100.11 40.0593 94.7024 33.1476 83.1299 33.1476Z" fill="url(#paint5_linear_119_144)"/>
</g>
<path d="M46.0508 69.3937V48.754C46.0508 48.7559 46.0522 47.8446 46.0522 47.8446C46.055 39.9073 46.0573 34.6636 61.7488 34.148C78.3316 33.6036 83.0772 33.6494 83.1236 33.6496H83.1299C88.4132 33.6496 92.7185 35.1601 95.5801 38.0172C98.2001 40.6319 99.5847 44.2867 99.5847 48.5866C99.5847 57.7886 89.6667 60.3301 81.3469 60.8418C76.968 61.1102 71.803 58.9628 67.2459 57.0676C62.1376 54.9438 57.7261 53.1098 55.0101 54.7019C53.5754 55.5427 52.7957 57.2357 52.6259 59.8777C52.2567 63.4118 51.8214 69.2985 51.8173 69.3585C51.8161 71.0877 50.0094 71.3411 48.9325 71.3411C47.8566 71.3411 46.0508 71.0877 46.0508 69.3937ZM61.7134 33.1439C45.0066 33.6925 45.0038 39.6283 45.0013 47.8439L45 48.7526V69.3937C45 71.2424 46.4703 72.3474 48.9325 72.3474C51.3968 72.3474 52.8669 71.2424 52.8669 69.3937C52.8699 69.3693 53.3031 63.4968 53.6729 59.9582C53.8217 57.6487 54.4384 56.2165 55.5588 55.5591C57.8095 54.2406 62.1885 56.0616 66.827 57.99C71.4933 59.9302 76.7817 62.1297 81.4142 61.8449C93.8093 61.0825 100.635 56.374 100.635 48.5866C100.635 44.0229 99.1495 40.1277 96.3389 37.3212C93.2745 34.262 88.7066 32.6446 83.1299 32.6446H83.1362C83.0903 32.644 78.333 32.5966 61.7134 33.1439Z" fill="#172554"/>
<mask id="mask6_119_144" style="mask-type:luminance" maskUnits="userSpaceOnUse" x="45" y="49" width="3" height="21">
<path d="M45.9839 49.3199C46.0018 51.2582 45.727 68.1884 46.805 69.205C46.4663 68.4553 47.2073 52.0534 47.1978 51.0226L47.1879 50.4194C47.1879 50.1322 47.1879 49.8491 47.1879 49.5673C46.7723 49.415 46.369 49.2279 45.9796 49.0137L45.9839 49.3199Z" fill="white"/>
</mask>
<g mask="url(#mask6_119_144)">
<path d="M45.9839 49.3199C46.0018 51.2582 45.727 68.1884 46.805 69.205C46.4663 68.4553 47.2073 52.0534 47.1978 51.0226L47.1879 50.4194C47.1879 50.1322 47.1879 49.8491 47.1879 49.5673C46.7723 49.415 46.369 49.2279 45.9796 49.0137L45.9839 49.3199Z" fill="url(#paint6_linear_119_144)"/>
</g>
<mask id="mask7_119_144" style="mask-type:luminance" maskUnits="userSpaceOnUse" x="46" y="33" width="52" height="17">
<path d="M83.1236 33.7154C83.1236 33.7154 78.6252 33.6628 62.1873 34.203C45.75 34.7431 46.0023 40.7502 46.0023 48.8263L46.0057 49.125C46.3862 49.3392 46.7805 49.5263 47.1851 49.6788C47.1889 42.0357 47.5166 36.4277 63.3707 35.9069C79.8081 35.3668 84.3079 35.4193 84.3079 35.4193C90.5941 35.4193 94.9217 37.5243 97.6162 40.8085C95.1355 36.5585 90.4387 33.7154 83.1236 33.7154Z" fill="white"/>
</mask>
<g mask="url(#mask7_119_144)">
<path d="M83.1236 33.7154C83.1236 33.7154 78.6252 33.6628 62.1873 34.203C45.75 34.7431 46.0023 40.7502 46.0023 48.8263L46.0057 49.125C46.3862 49.3392 46.7805 49.5263 47.1851 49.6788C47.1889 42.0357 47.5166 36.4277 63.3707 35.9069C79.8081 35.3668 84.3079 35.4193 84.3079 35.4193C90.5941 35.4193 94.9217 37.5243 97.6162 40.8085C95.1355 36.5585 90.4387 33.7154 83.1236 33.7154Z" fill="url(#paint7_linear_119_144)"/>
</g>
<mask id="mask8_119_144" style="mask-type:luminance" maskUnits="userSpaceOnUse" x="63" y="55" width="15" height="19">
<path d="M77.3984 59.8652V69.0576C77.3984 72.2404 74.2136 73.3835 70.2864 73.3835C66.3592 73.3835 63.176 72.2404 63.176 69.0576V55.0661" fill="white"/>
</mask>
<g mask="url(#mask8_119_144)">
<path d="M77.3984 59.8652V69.0576C77.3984 72.2404 74.2136 73.3835 70.2864 73.3835C66.3592 73.3835 63.176 72.2404 63.176 69.0576V55.0661" fill="url(#paint8_linear_119_144)"/>
</g>
<path d="M62.6506 55.0661V69.0576C62.6506 72.1712 65.3631 73.8857 70.2864 73.8857C75.2113 73.8857 77.924 72.1712 77.924 69.0576V59.8652C77.924 59.5876 77.6882 59.3624 77.3984 59.3624C77.1087 59.3624 76.8731 59.5876 76.8731 59.8652V69.0576C76.8731 72.2174 73.2916 72.8805 70.2864 72.8805C67.2828 72.8805 63.7015 72.2174 63.7015 69.0576V55.0661C63.7015 54.7886 63.4661 54.5636 63.176 54.5636C62.8859 54.5636 62.6506 54.7886 62.6506 55.0661Z" fill="#172554"/>
<path d="M67.6492 69.9492C67.6492 71.1465 66.6451 72.1176 65.4053 72.1176C64.1656 72.1176 63.1611 71.1465 63.1611 69.9492C63.1611 68.7504 64.1656 66.0446 65.4053 66.0446C66.6451 66.0446 67.6492 68.7504 67.6492 69.9492Z" fill="#8B9DD7"/>
<path d="M63.3363 69.9492C63.3363 68.782 64.3367 66.2116 65.4052 66.2116C66.4739 66.2116 67.4743 68.782 67.4743 69.9492C67.4743 71.0529 66.5468 71.9501 65.4052 71.9501C64.2651 71.9501 63.3363 71.0529 63.3363 69.9492ZM62.9857 69.9492C62.9857 71.237 64.0711 72.2852 65.4052 72.2852C66.7395 72.2852 67.8247 71.237 67.8247 69.9492C67.8247 68.7348 66.8037 65.876 65.4052 65.876C64.008 65.876 62.9857 68.7348 62.9857 69.9492Z" fill="#172554"/>
<path d="M63.5443 70.0925C63.5443 69.0203 64.8007 67.094 65.72 67.094C65.8075 67.094 65.8925 67.1215 65.9775 67.1634C65.7459 66.8247 65.4845 66.5992 65.2069 66.5992C64.2873 66.5992 63.5443 69.0217 63.5443 70.0925Z" fill="#A6BDE6"/>
<path d="M69.4774 70.1188C69.4774 71.6979 68.4374 72.9829 67.1543 72.9829C65.8694 72.9829 64.8293 71.6979 64.8293 70.1188C64.8293 68.5375 65.8694 64.9666 67.1543 64.9666C68.4374 64.9666 69.4774 68.5375 69.4774 70.1188Z" fill="#8B9DD7"/>
<path d="M65.0042 70.1188C65.0042 68.5613 66.0442 65.1337 67.1543 65.1337C68.264 65.1337 69.3025 68.5613 69.3025 70.1188C69.3025 71.6051 68.339 72.8149 67.1543 72.8149C65.9692 72.8149 65.0042 71.6051 65.0042 70.1188ZM64.6541 70.1188C64.6541 71.7902 65.7758 73.1505 67.1543 73.1505C68.5322 73.1505 69.6527 71.7902 69.6527 70.1188C69.6527 68.5315 68.5976 64.7994 67.1543 64.7994C65.7104 64.7994 64.6541 68.5315 64.6541 70.1188Z" fill="#172554"/>
<path d="M65.4558 70.4052C65.4558 68.8825 66.7135 66.1458 67.6317 66.1458C67.7191 66.1458 67.8054 66.1853 67.889 66.2436C67.659 65.7604 67.396 65.4419 67.1186 65.4419C66.1988 65.4419 65.4558 68.8846 65.4558 70.4052Z" fill="#A6BDE6"/>
<path d="M70.6969 70.9692C70.6969 72.0871 69.9484 72.9932 69.0246 72.9932C68.1012 72.9932 67.3525 72.0871 67.3525 70.9692C67.3525 69.8458 68.1012 67.3192 69.0246 67.3192C69.9484 67.3192 70.6969 69.8458 70.6969 70.9692Z" fill="#8B9DD7"/>
<path d="M67.5276 70.9692C67.5276 69.7584 68.3216 67.4867 69.0245 67.4867C69.7292 67.4867 70.5217 69.7584 70.5217 70.9692C70.5217 71.9935 69.8507 72.8253 69.0245 72.8253C68.1993 72.8253 67.5276 71.9935 67.5276 70.9692ZM67.1772 70.9692C67.1772 72.1778 68.0066 73.1608 69.0245 73.1608C70.0442 73.1608 70.8717 72.1778 70.8717 70.9692C70.8717 69.8685 70.1358 67.1518 69.0245 67.1518C67.9138 67.1518 67.1772 69.8685 67.1772 70.9692Z" fill="#172554"/>
<path d="M68.0558 70.3016C67.971 69.5033 68.7548 68.1798 69.3654 68.0841C69.423 68.075 69.4815 68.0885 69.5405 68.1104C69.3613 67.8803 69.1587 67.6979 68.9852 67.7705C68.38 68.0282 67.971 69.5059 68.0558 70.3016Z" fill="#A6BDE6"/>
<mask id="mask9_119_144" style="mask-type:luminance" maskUnits="userSpaceOnUse" x="84" y="53" width="16" height="21">
<path d="M99.1602 53.5482V68.6981C99.1602 71.8808 95.9755 73.0231 92.0484 73.0231C88.1208 73.0231 84.9381 71.8808 84.9381 68.6981V59.9936" fill="white"/>
</mask>
<g mask="url(#mask9_119_144)">
<path d="M99.1602 53.5482V68.6981C99.1602 71.8808 95.9755 73.0231 92.0484 73.0231C88.1208 73.0231 84.9381 71.8808 84.9381 68.6981V59.9936" fill="url(#paint9_linear_119_144)"/>
</g>
<path d="M98.634 53.5482V68.6982C98.634 71.8577 95.0525 72.5203 92.0484 72.5203C89.0449 72.5203 85.4637 71.8577 85.4637 68.6982V59.9936C85.4637 59.7161 85.2283 59.4906 84.9381 59.4906C84.6481 59.4906 84.4127 59.7161 84.4127 59.9936V68.6982C84.4127 71.8114 87.1245 73.5264 92.0484 73.5264C96.9727 73.5264 99.685 71.8114 99.685 68.6982V53.5482C99.685 53.2705 99.4501 53.046 99.1601 53.046C98.8696 53.046 98.634 53.2705 98.634 53.5482Z" fill="#172554"/>
<path d="M89.4115 69.5895C89.4115 70.7861 88.407 71.7569 87.1673 71.7569C85.9276 71.7569 84.9233 70.7861 84.9233 69.5895C84.9233 68.3908 85.9276 65.6844 87.1673 65.6844C88.407 65.6844 89.4115 68.3908 89.4115 69.5895Z" fill="#8B9DD7"/>
<path d="M85.0986 69.5895C85.0986 68.4218 86.0986 65.8526 87.1672 65.8526C88.2364 65.8526 89.2366 68.4218 89.2366 69.5895C89.2366 70.6924 88.3081 71.5902 87.1672 71.5902C86.0267 71.5902 85.0986 70.6924 85.0986 69.5895ZM84.7482 69.5895C84.7482 70.8773 85.8331 71.9253 87.1672 71.9253C88.5014 71.9253 89.5866 70.8773 89.5866 69.5895C89.5866 68.3749 88.5653 65.517 87.1672 65.517C85.7697 65.517 84.7482 68.3749 84.7482 69.5895Z" fill="#172554"/>
<path d="M85.3063 69.7321C85.3063 68.6603 86.5624 66.7343 87.482 66.7343C87.5697 66.7343 87.6544 66.7615 87.7394 66.803C87.5082 66.4643 87.2469 66.239 86.969 66.239C86.0495 66.239 85.3063 68.6618 85.3063 69.7321Z" fill="#A6BDE6"/>
<path d="M91.2399 69.7584C91.2399 71.3384 90.2001 72.6231 88.916 72.6231C87.631 72.6231 86.5912 71.3384 86.5912 69.7584C86.5912 68.1771 87.631 64.6071 88.916 64.6071C90.2001 64.6071 91.2399 68.1771 91.2399 69.7584Z" fill="#8B9DD7"/>
<path d="M86.7662 69.7584C86.7662 68.2009 87.8055 64.7743 88.916 64.7743C90.0262 64.7743 91.0645 68.2009 91.0645 69.7584C91.0645 71.2452 90.1005 72.4555 88.916 72.4555C87.7302 72.4555 86.7662 71.2452 86.7662 69.7584ZM86.416 69.7584C86.416 71.4302 87.5374 72.7902 88.916 72.7902C90.2938 72.7902 91.4147 71.4302 91.4147 69.7584C91.4147 68.1718 90.3599 64.4387 88.916 64.4387C87.4713 64.4387 86.416 68.1718 86.416 69.7584Z" fill="#172554"/>
<path d="M87.218 70.0456C87.218 68.523 88.4756 65.7864 89.3935 65.7864C89.4814 65.7864 89.5674 65.8256 89.6512 65.8837C89.4214 65.4005 89.1586 65.0827 88.8805 65.0827C87.961 65.0827 87.218 68.5242 87.218 70.0456Z" fill="#A6BDE6"/>
<path d="M92.4586 70.609C92.4586 71.7275 91.7103 72.6336 90.7868 72.6336C89.8634 72.6336 89.1146 71.7275 89.1146 70.609C89.1146 69.4862 89.8634 66.9589 90.7868 66.9589C91.7103 66.9589 92.4586 69.4862 92.4586 70.609Z" fill="#8B9DD7"/>
<path d="M89.2896 70.609C89.2896 69.3984 90.0828 67.1272 90.7869 67.1272C91.4908 67.1272 92.284 69.3984 92.284 70.609C92.284 71.6331 91.6117 72.4659 90.7869 72.4659C89.9616 72.4659 89.2896 71.6331 89.2896 70.609ZM88.9393 70.609C88.9393 71.8181 89.7678 72.8007 90.7869 72.8007C91.8055 72.8007 92.6338 71.8181 92.6338 70.609C92.6338 69.5088 91.8978 66.7916 90.7869 66.7916C89.6755 66.7916 88.9393 69.5088 88.9393 70.609Z" fill="#172554"/>
<path d="M89.8181 69.9419C89.7335 69.1433 90.5171 67.8203 91.1277 67.7244C91.185 67.7155 91.2438 67.728 91.3028 67.7507C91.1231 67.5201 90.921 67.339 90.7473 67.41C90.1421 67.6678 89.7335 69.146 89.8181 69.9419Z" fill="#A6BDE6"/>
<path d="M49.9806 40.3368C49.7951 40.5869 49.8605 40.9306 50.128 41.1055C50.3944 41.2802 50.7616 41.2178 50.947 40.9684C52.0036 39.5445 54.3802 39.152 55.51 39.5565C55.7352 39.6375 56.0197 39.6023 56.1441 39.4763C56.2684 39.352 56.1871 39.1848 55.9614 39.1041C54.4144 38.5495 51.3796 38.4491 49.9806 40.3368Z" fill="#172554"/>
<path d="M54.5601 46.5962C53.5843 46.8003 52.724 46.2587 52.6394 45.3871C52.555 44.5141 53.2784 43.6418 54.2544 43.4358C55.2313 43.231 56.0913 43.7712 56.1766 44.6447C56.2604 45.5175 55.5372 46.3895 54.5601 46.5962ZM56.5779 44.5283C56.4801 43.5112 55.4641 42.8854 54.3062 43.127C53.1498 43.3698 52.2907 44.3883 52.3879 45.404C52.4852 46.4192 53.5016 47.0467 54.6581 46.8061C55.8159 46.5625 56.6752 45.5442 56.5779 44.5283Z" fill="#172554"/>
<path d="M56.1148 44.715C56.1889 45.4823 55.5562 46.2508 54.7018 46.43C53.8438 46.6111 53.0915 46.1337 53.0151 45.3664C52.9416 44.5991 53.5744 43.8314 54.4292 43.6519C55.2863 43.4712 56.0406 43.947 56.1148 44.715Z" fill="#FCFCFC"/>
<path d="M55.9897 44.7227C55.7582 44.138 55.1438 43.7991 54.6226 43.9619C54.3433 44.0477 54.1519 44.2619 54.0627 44.5295L54.7912 44.887L54.1219 45.3662C54.3699 45.9176 54.9566 46.2342 55.4628 46.0768C55.986 45.9121 56.2208 45.3072 55.9897 44.7227Z" fill="#172554"/>
<path d="M55.4534 44.4722C55.583 44.4537 55.7357 44.6093 55.7912 44.8254C55.8472 45.0388 55.7869 45.2286 55.6544 45.2489C55.5233 45.2684 55.3709 45.1116 55.3148 44.8962C55.2603 44.683 55.3218 44.4936 55.4534 44.4722Z" fill="white"/>
<path d="M53.3342 43.5909C52.4209 44.29 52.1322 45.3054 52.7492 45.881C52.6957 45.8583 52.8122 46.0062 52.7629 45.9788C51.7913 45.4444 51.629 43.8579 52.5234 42.9244C53.2912 42.1221 55.5954 41.5274 55.5783 41.8367C55.4832 42.1915 54.8087 42.642 53.9711 43.1315C53.7015 43.2835 53.5071 43.4589 53.3342 43.5909Z" fill="#172554"/>
<path d="M68.3416 53.4449C68.2946 53.6829 68.4569 53.8783 68.7018 53.8783H70.1089C70.3542 53.8783 70.5925 53.6829 70.6399 53.4449L71.0146 51.5292C71.0617 51.2907 71.2995 51.0958 71.5451 51.0958H73.0679C73.9365 51.0958 74.651 51.0053 75.2113 50.8239C75.7729 50.6434 76.2819 50.3394 76.7417 49.9132C77.126 49.5625 77.4383 49.1754 77.6763 48.7511C77.9143 48.3283 78.0844 47.861 78.1839 47.3498C78.4273 46.1096 78.1878 45.187 77.6345 44.45C76.9397 43.5274 75.1664 43.4785 75.1664 43.4785C74.924 43.4423 74.5257 43.4115 74.2806 43.4115H70.7523C70.5075 43.4115 70.2692 43.6071 70.2219 43.8458L68.3416 53.4449ZM73.8551 45.0634C74.7287 45.0634 75.3099 45.2236 75.6012 45.5433C75.8916 45.8629 75.9613 46.4122 75.8095 47.1896C75.65 47.9997 75.3439 48.5786 74.8907 48.9248C74.4375 49.2708 73.2639 49.396 73.2639 49.396C73.0198 49.4225 72.6201 49.444 72.3755 49.444H71.8688C71.624 49.444 71.461 49.2486 71.5082 49.0103L72.1965 45.4975C72.2431 45.259 72.4819 45.0634 72.7264 45.0634H73.8551Z" fill="#172554"/>
<path d="M68.3416 53.4449C68.2946 53.6829 68.4569 53.8783 68.7018 53.8783H70.1089C70.3542 53.8783 70.5925 53.6829 70.6399 53.4449L71.0146 51.5292C71.0617 51.2907 71.2995 51.0958 71.5451 51.0958H73.0679C73.9365 51.0958 74.651 51.0053 75.2113 50.8239C75.7729 50.6434 76.2819 50.3394 76.7417 49.9132C77.126 49.5625 77.4383 49.1754 77.6763 48.7511C77.9143 48.3283 78.0844 47.861 78.1839 47.3498C78.4273 46.1096 78.1878 45.187 77.6345 44.45C76.9397 43.5274 75.1664 43.4785 75.1664 43.4785C74.924 43.4423 74.5257 43.4115 74.2806 43.4115H70.7523C70.5075 43.4115 70.2692 43.6071 70.2219 43.8458L68.3416 53.4449ZM73.8551 45.0634C74.7287 45.0634 75.3099 45.2236 75.6012 45.5433C75.8916 45.8629 75.9613 46.4122 75.8095 47.1896C75.65 47.9997 75.3439 48.5786 74.8907 48.9248C74.4375 49.2708 73.2639 49.396 73.2639 49.396C73.0198 49.4225 72.6201 49.444 72.3755 49.444H71.8688C71.624 49.444 71.461 49.2486 71.5082 49.0103L72.1965 45.4975C72.2431 45.259 72.4819 45.0634 72.7264 45.0634H73.8551Z" stroke="white" stroke-width="5.29133"/>
<path d="M80.4007 41.0629C80.4473 40.8249 80.6856 40.6298 80.9304 40.6298H82.3199C82.5652 40.6298 82.7272 40.8249 82.6801 41.0629L82.3051 42.9786C82.2582 43.2173 82.4215 43.4115 82.6658 43.4115H83.8056C84.0504 43.4115 84.4505 43.4324 84.6938 43.4572C84.6938 43.4572 86.3561 43.4765 86.8955 44.0754C87.3349 44.563 87.5258 45.2346 87.3317 46.225L86.4632 50.6622C86.4168 50.9007 86.1778 51.0958 85.9328 51.0958H84.5075C84.2625 51.0958 84.1 50.9007 84.1469 50.6622L84.8847 46.8981C84.9314 46.6598 84.9838 46.2664 85.0018 46.0236C85.0018 46.0236 85.0346 45.5782 84.8551 45.3871C84.6763 45.1954 84.2945 45.1 83.7111 45.1H82.3345C82.0892 45.1 81.8517 45.2946 81.8041 45.5331L80.8002 50.6622C80.7534 50.9007 80.5151 51.0958 80.27 51.0958H78.8803C78.6352 51.0958 78.4732 50.9007 78.5198 50.6622L80.4007 41.0629Z" fill="#172554"/>
<path d="M80.4007 41.0629C80.4473 40.8249 80.6856 40.6298 80.9304 40.6298H82.3199C82.5652 40.6298 82.7272 40.8249 82.6801 41.0629L82.3051 42.9786C82.2582 43.2173 82.4215 43.4115 82.6658 43.4115H83.8056C84.0504 43.4115 84.4505 43.4324 84.6938 43.4572C84.6938 43.4572 86.3561 43.4765 86.8955 44.0754C87.3349 44.563 87.5258 45.2346 87.3317 46.225L86.4632 50.6622C86.4168 50.9007 86.1778 51.0958 85.9328 51.0958H84.5075C84.2625 51.0958 84.1 50.9007 84.1469 50.6622L84.8847 46.8981C84.9314 46.6598 84.9838 46.2664 85.0018 46.0236C85.0018 46.0236 85.0346 45.5782 84.8551 45.3871C84.6763 45.1954 84.2945 45.1 83.7111 45.1H82.3345C82.0892 45.1 81.8517 45.2946 81.8041 45.5331L80.8002 50.6622C80.7534 50.9007 80.5151 51.0958 80.27 51.0958H78.8803C78.6352 51.0958 78.4732 50.9007 78.5198 50.6622L80.4007 41.0629Z" stroke="white" stroke-width="5.29133"/>
<path d="M87.4488 53.4449C87.4017 53.6829 87.5642 53.8783 87.8095 53.8783H89.2165C89.4608 53.8783 89.7003 53.6829 89.7467 53.4449L90.1217 51.5292C90.1686 51.2907 90.4073 51.0958 90.6517 51.0958H92.1752C93.0435 51.0958 93.7576 51.0053 94.3194 50.8239C94.8792 50.6434 95.3893 50.3394 95.8483 49.9132C96.2338 49.5625 96.5446 49.1754 96.7834 48.7511C97.0217 48.3283 97.1909 47.861 97.2913 47.3498C97.5344 46.1096 97.3143 45.1727 96.7414 44.45C96.0305 43.5529 94.273 43.4785 94.273 43.4785C94.0306 43.4423 93.632 43.4115 93.3872 43.4115H89.8589C89.6143 43.4115 89.3753 43.6071 89.3289 43.8458L87.4488 53.4449ZM92.9629 45.0634C93.8356 45.0634 94.4173 45.2236 94.709 45.5433C94.9987 45.8629 95.0682 46.4122 94.9161 47.1896C94.7568 47.9997 94.452 48.5786 93.998 48.9248C93.5441 49.2708 92.3705 49.396 92.3705 49.396C92.1274 49.4225 91.7279 49.444 91.4823 49.444H90.9752C90.7299 49.444 90.5686 49.2486 90.615 49.0103L91.3028 45.4975C91.3499 45.259 91.5884 45.0634 91.8333 45.0634H92.9629Z" fill="#172554"/>
<path d="M87.4488 53.4449C87.4017 53.6829 87.5642 53.8783 87.8095 53.8783H89.2165C89.4608 53.8783 89.7003 53.6829 89.7467 53.4449L90.1217 51.5292C90.1686 51.2907 90.4073 51.0958 90.6517 51.0958H92.1752C93.0435 51.0958 93.7576 51.0053 94.3194 50.8239C94.8792 50.6434 95.3893 50.3394 95.8483 49.9132C96.2338 49.5625 96.5446 49.1754 96.7834 48.7511C97.0217 48.3283 97.1909 47.861 97.2913 47.3498C97.5344 46.1096 97.3143 45.1727 96.7414 44.45C96.0305 43.5529 94.273 43.4785 94.273 43.4785C94.0306 43.4423 93.632 43.4115 93.3872 43.4115H89.8589C89.6143 43.4115 89.3753 43.6071 89.3289 43.8458L87.4488 53.4449ZM92.9629 45.0634C93.8356 45.0634 94.4173 45.2236 94.709 45.5433C94.9987 45.8629 95.0682 46.4122 94.9161 47.1896C94.7568 47.9997 94.452 48.5786 93.998 48.9248C93.5441 49.2708 92.3705 49.396 92.3705 49.396C92.1274 49.4225 91.7279 49.444 91.4823 49.444H90.9752C90.7299 49.444 90.5686 49.2486 90.615 49.0103L91.3028 45.4975C91.3499 45.259 91.5884 45.0634 91.8333 45.0634H92.9629Z" stroke="white" stroke-width="5.29133"/>
<path d="M68.3416 53.4449C68.2946 53.6829 68.4569 53.8783 68.7018 53.8783H70.1089C70.3542 53.8783 70.5925 53.6829 70.6399 53.4449L71.0146 51.5292C71.0617 51.2907 71.2995 51.0958 71.5451 51.0958H73.0679C73.9365 51.0958 74.651 51.0053 75.2113 50.8239C75.7729 50.6434 76.2819 50.3394 76.7417 49.9132C77.126 49.5625 77.4383 49.1754 77.6763 48.7511C77.9143 48.3283 78.0844 47.861 78.1839 47.3498C78.4273 46.1096 78.1878 45.187 77.6345 44.45C76.9397 43.5274 75.1664 43.4785 75.1664 43.4785C74.924 43.4423 74.5257 43.4115 74.2806 43.4115H70.7523C70.5075 43.4115 70.2692 43.6071 70.2219 43.8458L68.3416 53.4449ZM73.8551 45.0634C74.7287 45.0634 75.3099 45.2236 75.6012 45.5433C75.8916 45.8629 75.9613 46.4122 75.8095 47.1896C75.65 47.9997 75.3439 48.5786 74.8907 48.9248C74.4375 49.2708 73.2639 49.396 73.2639 49.396C73.0198 49.4225 72.6201 49.444 72.3755 49.444H71.8688C71.624 49.444 71.461 49.2486 71.5082 49.0103L72.1965 45.4975C72.2431 45.259 72.4819 45.0634 72.7264 45.0634H73.8551Z" fill="#172554"/>
<path d="M80.4007 41.0629C80.4473 40.8249 80.6856 40.6298 80.9304 40.6298H82.3199C82.5652 40.6298 82.7272 40.8249 82.6801 41.0629L82.3051 42.9786C82.2582 43.2173 82.4215 43.4115 82.6658 43.4115H83.8056C84.0504 43.4115 84.4505 43.4324 84.6938 43.4572C84.6938 43.4572 86.3561 43.4765 86.8955 44.0754C87.3349 44.563 87.5258 45.2346 87.3317 46.225L86.4632 50.6622C86.4168 50.9007 86.1778 51.0958 85.9328 51.0958H84.5075C84.2625 51.0958 84.1 50.9007 84.1469 50.6622L84.8847 46.8981C84.9314 46.6598 84.9838 46.2664 85.0018 46.0236C85.0018 46.0236 85.0346 45.5782 84.8551 45.3871C84.6763 45.1954 84.2945 45.1 83.7111 45.1H82.3345C82.0892 45.1 81.8517 45.2946 81.8041 45.5331L80.8002 50.6622C80.7534 50.9007 80.5151 51.0958 80.27 51.0958H78.8803C78.6352 51.0958 78.4732 50.9007 78.5198 50.6622L80.4007 41.0629Z" fill="#172554"/>
<path d="M87.4488 53.4449C87.4017 53.6829 87.5642 53.8783 87.8095 53.8783H89.2165C89.4608 53.8783 89.7003 53.6829 89.7467 53.4449L90.1217 51.5292C90.1686 51.2907 90.4073 51.0958 90.6517 51.0958H92.1752C93.0435 51.0958 93.7576 51.0053 94.3194 50.8239C94.8792 50.6434 95.3893 50.3394 95.8483 49.9132C96.2338 49.5625 96.5446 49.1754 96.7834 48.7511C97.0217 48.3283 97.1909 47.861 97.2913 47.3498C97.5344 46.1096 97.3143 45.1727 96.7414 44.45C96.0305 43.5529 94.273 43.4785 94.273 43.4785C94.0306 43.4423 93.632 43.4115 93.3872 43.4115H89.8589C89.6143 43.4115 89.3753 43.6071 89.3289 43.8458L87.4488 53.4449ZM92.9629 45.0634C93.8356 45.0634 94.4173 45.2236 94.709 45.5433C94.9987 45.8629 95.0682 46.4122 94.9161 47.1896C94.7568 47.9997 94.452 48.5786 93.998 48.9248C93.5441 49.2708 92.3705 49.396 92.3705 49.396C92.1274 49.4225 91.7279 49.444 91.4823 49.444H90.9752C90.7299 49.444 90.5686 49.2486 90.615 49.0103L91.3028 45.4975C91.3499 45.259 91.5884 45.0634 91.8333 45.0634H92.9629Z" fill="#172554"/>
<mask id="mask10_119_144" style="mask-type:luminance" maskUnits="userSpaceOnUse" x="58" y="30" width="16" height="23">
<path d="M58.8898 34.7078C58.8898 34.7078 63.0558 31.8669 65.6872 30.8931C66.5258 30.5826 72.577 28.997 73.558 39.3607C74.0943 45.0351 73.1286 48.9544 68.4374 49.6643C65.63 50.0898 66.0647 52.1652 66.0647 52.1652" fill="white"/>
</mask>
<g mask="url(#mask10_119_144)">
<path d="M58.8898 34.7078C58.8898 34.7078 63.0558 31.8669 65.6872 30.8931C66.5258 30.5826 72.577 28.997 73.558 39.3607C74.0943 45.0351 73.1286 48.9544 68.4374 49.6643C65.63 50.0898 66.0647 52.1652 66.0647 52.1652" fill="url(#paint10_linear_119_144)"/>
</g>
<path d="M65.497 30.4244C62.835 31.4099 58.7573 34.1808 58.5845 34.2986C58.3487 34.4595 58.2935 34.7736 58.4621 34.9994C58.6303 35.2253 58.9588 35.2778 59.1949 35.1167C59.2359 35.0895 63.3377 32.3017 65.8758 31.3617C65.9552 31.3328 67.8231 30.6621 69.6161 31.7272C71.4826 32.8365 72.6644 35.4913 73.0356 39.4062C73.6265 45.663 72.2268 48.5817 68.3555 49.1683C67.258 49.3341 66.4591 49.7518 65.9801 50.4112C65.3512 51.2743 65.5408 52.2242 65.5497 52.2644C65.6067 52.5345 65.8801 52.7087 66.1632 52.6569C66.4467 52.6053 66.6328 52.342 66.5808 52.0705C66.5795 52.0657 66.475 51.4808 66.8502 50.9749C67.1611 50.5559 67.7226 50.2818 68.5196 50.1606C74.2752 49.2895 74.5159 43.907 74.0824 39.3154C73.6746 35.0131 72.3577 32.1726 70.1708 30.8734C67.9752 29.5689 65.7447 30.3328 65.497 30.4244Z" fill="#172554"/>
<mask id="mask11_119_144" style="mask-type:luminance" maskUnits="userSpaceOnUse" x="57" y="31" width="14" height="7">
<path d="M63.1514 33.9563C67.8684 31.0305 70.487 32.5265 70.487 32.5265C68.436 30.6665 66.1288 31.283 65.6186 31.4728C62.9963 32.4465 57.9318 36.0451 57.9318 36.0451C57.9318 36.0451 57.247 37.2499 58.6116 36.9885C58.6116 36.9885 61.5799 34.9317 63.1514 33.9563Z" fill="white"/>
</mask>
<g mask="url(#mask11_119_144)">
<path d="M63.1514 33.9563C67.8684 31.0305 70.487 32.5265 70.487 32.5265C68.436 30.6665 66.1288 31.283 65.6186 31.4728C62.9963 32.4465 57.9318 36.0451 57.9318 36.0451C57.9318 36.0451 57.247 37.2499 58.6116 36.9885C58.6116 36.9885 61.5799 34.9317 63.1514 33.9563Z" fill="url(#paint11_linear_119_144)"/>
</g>
<path d="M61.4493 47.7627C61.4083 50.138 60.6155 52.3011 59.3788 53.4044C58.8177 53.9057 58.1918 54.1539 57.5671 54.1235C57.3744 54.1132 57.2102 54.255 57.1991 54.4398C57.1899 54.6253 57.3381 54.7824 57.5315 54.792C58.3499 54.833 59.1535 54.5227 59.857 53.8946C61.2277 52.6709 62.1061 50.3254 62.1497 47.7726C62.1535 47.5885 61.9996 47.4355 61.8059 47.4327C61.6121 47.43 61.4528 47.5777 61.4493 47.7627Z" fill="#172554"/>
<path d="M62.9667 46.0665C62.7028 46.6666 62.2418 47.0489 61.7006 47.1127C61.173 47.1744 60.6369 46.9296 60.2662 46.4572C60.1507 46.3096 59.9303 46.2792 59.7757 46.3905C59.6212 46.5013 59.5896 46.7114 59.706 46.8591C60.2293 47.5266 61.0073 47.8699 61.7865 47.7783C62.5838 47.683 63.2487 47.1537 63.6129 46.3257C63.6875 46.1549 63.603 45.96 63.4254 45.8875C63.2467 45.8159 63.0422 45.8962 62.9667 46.0665Z" fill="#172554"/>
</g>
<path d="M43.5868 102.994H93.5868" stroke="white" stroke-width="5" stroke-linecap="round"/>
<path d="M43.5868 114.994H118.587" stroke="white" stroke-width="5" stroke-linecap="round"/>
<path d="M43.5868 126.994H68.5868" stroke="white" stroke-width="5" stroke-linecap="round"/>
<defs>
<linearGradient id="paint0_linear_119_144" x1="70.8014" y1="45.5902" x2="91.8283" y2="61.389" gradientUnits="userSpaceOnUse">
<stop stop-color="#8C9BD6"/>
<stop offset="1" stop-color="#505E9B"/>
</linearGradient>
<linearGradient id="paint1_linear_119_144" x1="84.6343" y1="27.6087" x2="105.836" y2="43.5388" gradientUnits="userSpaceOnUse">
<stop stop-color="#808FD0"/>
<stop offset="1" stop-color="#505E9B"/>
</linearGradient>
<linearGradient id="paint2_linear_119_144" x1="61.2311" y1="57.9452" x2="82.1658" y2="73.6747" gradientUnits="userSpaceOnUse">
<stop stop-color="#8C9BD6"/>
<stop offset="1" stop-color="#505E9B"/>
</linearGradient>
<linearGradient id="paint3_linear_119_144" x1="69.1544" y1="47.8795" x2="90.0889" y2="63.6089" gradientUnits="userSpaceOnUse">
<stop stop-color="#8C9BD6"/>
<stop offset="1" stop-color="#505E9B"/>
</linearGradient>
<linearGradient id="paint4_linear_119_144" x1="70.2447" y1="46.047" x2="90.5659" y2="61.3155" gradientUnits="userSpaceOnUse">
<stop stop-color="#808FD0"/>
<stop offset="1" stop-color="#505E9B"/>
</linearGradient>
<linearGradient id="paint5_linear_119_144" x1="66.7287" y1="51.0486" x2="87.862" y2="66.9273" gradientUnits="userSpaceOnUse">
<stop stop-color="#8C9BD6"/>
<stop offset="1" stop-color="#505E9B"/>
</linearGradient>
<linearGradient id="paint6_linear_119_144" x1="37.6125" y1="45.827" x2="51.5314" y2="66.2795" gradientUnits="userSpaceOnUse">
<stop stop-color="#FAFAFD"/>
<stop offset="1" stop-color="#8892D2"/>
</linearGradient>
<linearGradient id="paint7_linear_119_144" x1="60.7864" y1="28.9944" x2="77.0051" y2="52.8262" gradientUnits="userSpaceOnUse">
<stop stop-color="#FAFAFD"/>
<stop offset="1" stop-color="#8892D2"/>
</linearGradient>
<linearGradient id="paint8_linear_119_144" x1="60.8971" y1="58.4633" x2="81.821" y2="74.1847" gradientUnits="userSpaceOnUse">
<stop stop-color="#8C9BD6"/>
<stop offset="1" stop-color="#505E9B"/>
</linearGradient>
<linearGradient id="paint9_linear_119_144" x1="70.4195" y1="46.0778" x2="91.4161" y2="61.8538" gradientUnits="userSpaceOnUse">
<stop stop-color="#8C9BD6"/>
<stop offset="1" stop-color="#505E9B"/>
</linearGradient>
<linearGradient id="paint10_linear_119_144" x1="71.6803" y1="44.4531" x2="92.6447" y2="60.2049" gradientUnits="userSpaceOnUse">
<stop stop-color="#8C9BD6"/>
<stop offset="1" stop-color="#505E9B"/>
</linearGradient>
<linearGradient id="paint11_linear_119_144" x1="60.3889" y1="29.2449" x2="76.9645" y2="53.6013" gradientUnits="userSpaceOnUse">
<stop stop-color="#FAFAFD"/>
<stop offset="1" stop-color="#8892D2"/>
</linearGradient>
<clipPath id="clip0_119_144">
<rect width="64" height="43.8857" fill="white" transform="translate(45 30)"/>
</clipPath>
</defs>
</svg>
